<svg width="237" height="72" viewBox="0 0 237 72" fill="none" xmlns="http://www.w3.org/2000/svg">
<rect x="6" y="6" width="226" height="60" fill="#00AC54"/>
<rect x="3" y="6" width="6" height="60" fill="#008C44"/>
<rect x="228" y="6" width="6" height="60" fill="#008C44"/>
<rect x="6" y="3" width="225" height="6" fill="#01C962"/>
<rect x="6" y="63" width="225" height="6" fill="#004C25"/>
<rect y="6" width="3" height="60" fill="black"/>
<rect x="9" y="12" width="3" height="48" fill="white"/>
<rect x="226" y="12" width="3" height="48" fill="white"/>
<rect x="234" y="6" width="3" height="60" fill="black"/>
<rect x="3" y="3" width="3" height="3" fill="black"/>
<rect x="231" y="3" width="3" height="3" fill="black"/>
<rect x="228" y="6" width="3" height="3" fill="#E4EAE7"/>
<rect x="228" y="63" width="3" height="3" fill="#E4EAE7"/>
<rect x="6" y="63" width="3" height="3" fill="#E4EAE7"/>
<rect x="6" y="6" width="3" height="3" fill="#E4EAE7"/>
<rect x="6" y="63" width="3" height="3" fill="#E4EAE7"/>
<rect x="12" y="9" width="214" height="3" fill="white"/>
<rect x="12" y="60" width="214" height="3" fill="white"/>
<rect x="231" y="66" width="3" height="3" fill="black"/>
<rect x="3" y="66" width="3" height="3" fill="black"/>
<rect x="6" width="225" height="3" fill="black"/>
<rect x="6" y="69" width="225" height="3" fill="black"/>
<path d="M56 42H54V40V38H52V40V42H50H48V40V38V36V34V32V30H50H52H54H56H58V32V34V36V38V40V42H56ZM54 36V34V32H52V34V36H54ZM62 42H60V40V38V36V34V32V30H62H64H66H68H70V32V34V36V38H68H66H64V40V42H62ZM66 36V34V32H64V34V36H66ZM74 42H72V40V38V36V34V32V30H74H76H78H80H82V32V34V36V38H80H78H76V40V42H74ZM78 36V34V32H76V34V36H78ZM92 42H90V40V38H88V40V42H86H84V40V38V36V34V32V30H86H88H90H92H94V32V34V36H92V38H94V40V42H92ZM90 36V34V32H88V34V36H90ZM104 42H102H100H98H96V40V38V36V34V32V30H98H100H102H104H106V32V34V36V38V40V42H104ZM102 40V38V36V34V32H100V34V36V38V40H102ZM116 42H114V40H112V38H110V36H108V34V32V30H110H112V32V34V36H114V34V32V30H116H118V32V34V36V38V40V42H116ZM128 42H126H124H122H120V40V38V36V34V32V30H122H124H126H128H130V32H128H126H124V34H126H128V36H126H124V38V40H126V38H128H130V40V42H128ZM150 42H148H146H144H142V40V38V36V34V32V30H144H146V32V34V36V38V40H148V38V36V34V32V30H150H152V32V34V36V38V40V42H150ZM162 42H160H158H156H154V40V38H156H158V40H160V38V36H158H156H154V34V32V30H156H158H160H162H164V32H162H160H158V34H160H162H164V36V38V40V42H162ZM172 42H170H168H166V40V38V36V34V32V30H168H170H172H174H176V32V34V36V38V40H174V42H172ZM172 40V38V36V34V32H170V34V36V38V40H172ZM186 42H184H182H180H178V40V38V36V34V32V30H180H182H184H186H188V32V34H186H184V32H182V34V36V38V40H184V38H186H188V40V42H186Z" fill="white"/>
</svg>
