<svg width="183" height="56" viewBox="0 0 183 56" fill="none" xmlns="http://www.w3.org/2000/svg">
<rect x="6" y="6" width="169" height="44" fill="#00AC54"/>
<rect x="3" y="6" width="6" height="44" fill="#008C44"/>
<rect x="174" y="6" width="6" height="44" fill="#008C44"/>
<rect x="6" y="3" width="171" height="6" fill="#01C962"/>
<rect x="6" y="47" width="171" height="6" fill="#004C25"/>
<rect y="6" width="3" height="44" fill="black"/>
<rect x="9" y="12" width="3" height="32" fill="white"/>
<rect x="171" y="12" width="3" height="32" fill="white"/>
<rect x="180" y="6" width="3" height="44" fill="black"/>
<rect x="3" y="3" width="3" height="3" fill="black"/>
<rect x="177" y="3" width="3" height="3" fill="black"/>
<rect x="174" y="6" width="3" height="3" fill="#E4EAE7"/>
<rect x="174" y="47" width="3" height="3" fill="#E4EAE7"/>
<rect x="6" y="6" width="3" height="3" fill="#E4EAE7"/>
<rect x="6" y="47" width="3" height="3" fill="#E4EAE7"/>
<rect x="12" y="9" width="159" height="3" fill="white"/>
<rect x="12" y="44" width="159" height="3" fill="white"/>
<rect x="177" y="50" width="3" height="3" fill="black"/>
<rect x="3" y="50" width="3" height="3" fill="black"/>
<rect x="6" width="171" height="3" fill="black"/>
<rect x="6" y="53" width="171" height="3" fill="black"/>
</svg>
