<svg width="40" height="41" viewBox="0 0 40 41" fill="none" xmlns="http://www.w3.org/2000/svg">
<path fill-rule="evenodd" clip-rule="evenodd" d="M13.2929 13.793C13.6834 13.4025 14.3166 13.4025 14.7071 13.793L20 19.0859L25.2929 13.793C25.6834 13.4025 26.3166 13.4025 26.7071 13.793C27.0976 14.1835 27.0976 14.8167 26.7071 15.2072L21.4142 20.5001L26.7071 25.793C27.0976 26.1835 27.0976 26.8167 26.7071 27.2072C26.3166 27.5977 25.6834 27.5977 25.2929 27.2072L20 21.9143L14.7071 27.2072C14.3166 27.5977 13.6834 27.5977 13.2929 27.2072C12.9024 26.8167 12.9024 26.1835 13.2929 25.793L18.5858 20.5001L13.2929 15.2072C12.9024 14.8167 12.9024 14.1835 13.2929 13.793Z" fill="#23262F"/>
<rect x="1" y="1.50009" width="38" height="38" rx="19" stroke="#E6E8EC" stroke-width="2"/>
</svg>
