<svg width="48" height="48" viewBox="0 0 48 48" fill="none" xmlns="http://www.w3.org/2000/svg">
<rect width="48" height="48" rx="24" fill="#00AC54"/>
<g clip-path="url(#clip0_11_6572)">
<path d="M22.4463 22.6199C22.2075 22.6396 21.9848 22.7483 21.8224 22.9246C21.6601 23.1008 21.5699 23.3317 21.5699 23.5713C21.5699 23.811 21.6601 24.0418 21.8224 24.2181C21.9848 24.3944 22.2075 24.5031 22.4463 24.5228C22.5665 24.5184 22.6846 24.4902 22.7939 24.4399C22.9031 24.3896 23.0013 24.3181 23.0828 24.2297C23.1643 24.1412 23.2274 24.0375 23.2686 23.9245C23.3098 23.8115 23.3282 23.6915 23.3227 23.5713C23.3286 23.4511 23.3105 23.3309 23.2695 23.2177C23.2285 23.1045 23.1654 23.0006 23.0838 22.9121C23.0022 22.8235 22.9039 22.7521 22.7944 22.7019C22.685 22.6518 22.5666 22.6239 22.4463 22.6199ZM25.5749 22.6199C25.3834 22.6042 25.1916 22.6466 25.0246 22.7416C24.8576 22.8366 24.7231 22.9798 24.6388 23.1525C24.5545 23.3252 24.5243 23.5192 24.5521 23.7094C24.5798 23.8995 24.6643 24.0768 24.7945 24.2181C24.9247 24.3595 25.0945 24.4582 25.2817 24.5015C25.4689 24.5447 25.6649 24.5305 25.8438 24.4606C26.0228 24.3907 26.1766 24.2685 26.285 24.1098C26.3933 23.9512 26.4513 23.7635 26.4513 23.5713C26.4568 23.4514 26.4385 23.3315 26.3974 23.2186C26.3564 23.1058 26.2934 23.0021 26.2121 22.9137C26.1309 22.8253 26.0329 22.7538 25.9239 22.7034C25.8149 22.653 25.697 22.6246 25.577 22.6199H25.5749Z" fill="white"/>
<path d="M29.7427 15.4287H18.257C18.0255 15.4293 17.7964 15.4755 17.5828 15.5646C17.3692 15.6538 17.1752 15.7842 17.012 15.9484C16.8488 16.1126 16.7196 16.3073 16.6317 16.5215C16.5438 16.7357 16.499 16.9651 16.4999 17.1966V28.783C16.499 29.0145 16.5438 29.2439 16.6317 29.458C16.7196 29.6722 16.8488 29.867 17.012 30.0312C17.1752 30.1953 17.3692 30.3258 17.5828 30.4149C17.7964 30.5041 18.0255 30.5503 18.257 30.5509H27.977L27.5227 28.9651L28.6199 29.983L29.657 30.943L31.4999 32.5716V17.1966C31.5007 16.9651 31.4559 16.7357 31.3681 16.5215C31.2802 16.3073 31.151 16.1126 30.9878 15.9484C30.8246 15.7842 30.6306 15.6538 30.417 15.5646C30.2034 15.4755 29.9742 15.4293 29.7427 15.4287V15.4287ZM26.4342 26.6251C26.4342 26.6251 26.1256 26.2566 25.8685 25.9287C26.4902 25.7834 27.0405 25.4229 27.422 24.9109C27.1136 25.1161 26.7829 25.2858 26.4363 25.4166C26.0376 25.5868 25.6205 25.7104 25.1935 25.7851C24.4594 25.9203 23.7065 25.9174 22.9735 25.7766C22.5431 25.6924 22.1214 25.569 21.7135 25.408C21.369 25.2744 21.04 25.1042 20.732 24.9001C21.0988 25.4018 21.6294 25.7596 22.232 25.9116C21.9749 26.2373 21.6577 26.623 21.6577 26.623C21.1486 26.6367 20.6438 26.5251 20.188 26.2979C19.7321 26.0707 19.3391 25.7349 19.0435 25.3201C19.0706 23.5826 19.4919 21.874 20.2756 20.323C20.9665 19.7804 21.8089 19.4659 22.6863 19.423L22.772 19.5259C21.9472 19.73 21.1776 20.1133 20.5177 20.6487C20.5177 20.6487 20.7063 20.5459 21.0235 20.4001C21.6403 20.1187 22.2976 19.9364 22.9713 19.8601C23.0193 19.8502 23.0681 19.8445 23.117 19.843C23.6914 19.7682 24.2727 19.7624 24.8485 19.8259C25.7539 19.9293 26.6303 20.2088 27.4285 20.6487C26.8021 20.1389 26.0746 19.7678 25.2942 19.5601L25.4142 19.423C26.2916 19.4659 27.134 19.7804 27.8249 20.323C28.6086 21.874 29.0299 23.5826 29.057 25.3201C28.7593 25.7349 28.3646 26.0706 27.9075 26.298C27.4504 26.5255 26.9446 26.6378 26.4342 26.6251Z" fill="white"/>
</g>
<defs>
<clipPath id="clip0_11_6572">
<rect width="17.1429" height="17.1429" fill="white" transform="translate(15.4285 15.4287)"/>
</clipPath>
</defs>
</svg>
