<svg width="32" height="32" viewBox="0 0 32 32" fill="none" xmlns="http://www.w3.org/2000/svg">
<path fill-rule="evenodd" clip-rule="evenodd" d="M3.29196 22.7079C3.38485 22.801 3.4952 22.8749 3.61669 22.9253C3.73818 22.9758 3.86842 23.0017 3.99996 23.0017C4.13149 23.0017 4.26173 22.9758 4.38322 22.9253C4.50471 22.8749 4.61507 22.801 4.70796 22.7079L16 11.4139L27.292 22.7079C27.3849 22.8009 27.4953 22.8747 27.6168 22.925C27.7383 22.9753 27.8685 23.0012 28 23.0012C28.1314 23.0012 28.2616 22.9753 28.3831 22.925C28.5046 22.8747 28.615 22.8009 28.708 22.7079C28.8009 22.6149 28.8747 22.5046 28.925 22.3831C28.9753 22.2616 29.0012 22.1314 29.0012 21.9999C29.0012 21.8684 28.9753 21.7382 28.925 21.6168C28.8747 21.4953 28.8009 21.3849 28.708 21.2919L16.708 9.29192C16.6151 9.1988 16.5047 9.12491 16.3832 9.0745C16.2617 9.02409 16.1315 8.99814 16 8.99814C15.8684 8.99814 15.7382 9.02409 15.6167 9.0745C15.4952 9.12491 15.3848 9.1988 15.292 9.29192L3.29196 21.2919C3.19883 21.3848 3.12494 21.4952 3.07453 21.6167C3.02412 21.7381 2.99817 21.8684 2.99817 21.9999C2.99817 22.1315 3.02412 22.2617 3.07453 22.3832C3.12494 22.5047 3.19883 22.615 3.29196 22.7079Z" fill="black"/>
</svg>
