<svg width="358" height="72" viewBox="0 0 358 72" fill="none" xmlns="http://www.w3.org/2000/svg">
<rect x="6" y="6" width="346" height="60" fill="#00AC54"/>
<rect x="3.11273" y="6" width="6" height="60" fill="#008C44"/>
<rect x="348.887" y="6" width="6" height="60" fill="#008C44"/>
<rect x="6" y="3" width="346" height="6" fill="#01C962"/>
<rect x="6" y="63" width="346" height="6" fill="#004C25"/>
<rect x="0.112732" y="6" width="3" height="60" fill="black"/>
<rect x="9.11273" y="12" width="3" height="48" fill="white"/>
<rect x="346" y="12" width="3" height="48" fill="white"/>
<rect x="354.887" y="6" width="3" height="60" fill="black"/>
<rect x="3.11273" y="3" width="3" height="3" fill="black"/>
<rect x="352" y="3" width="3" height="3" fill="black"/>
<rect x="349" y="6" width="3" height="3" fill="#E4EAE7"/>
<rect x="349" y="63" width="3" height="3" fill="#E4EAE7"/>
<rect x="6.11273" y="6" width="3" height="3" fill="#E4EAE7"/>
<rect x="6.11273" y="63" width="3" height="3" fill="#E4EAE7"/>
<rect x="12" y="9" width="334" height="3" fill="white"/>
<rect x="12" y="60" width="337" height="3" fill="white"/>
<rect x="352" y="66" width="3" height="3" fill="black"/>
<rect x="3.11273" y="66" width="3" height="3" fill="black"/>
<rect x="6" width="346" height="3" fill="black"/>
<rect x="6" y="69" width="346" height="3" fill="black"/>
<path d="M110 41H108H106H104H102V39V37H104H106V39H108V37V35V33V31V29H110H112V31V33V35V37V39V41H110ZM122 41H120H118H116H114V39V37V35V33V31V29H116H118H120H122H124V31V33V35V37V39V41H122ZM120 39V37V35V33V31H118V33V35V37V39H120ZM132 41H130H128H126V39H128V37V35V33V31H126V29H128H130H132H134V31H132V33V35V37V39H134V41H132ZM146 41H144V39V37H142V35H140V37V39V41H138H136V39V37V35V33V31V29H138H140V31H142V33H144V31V29H146H148V31V33V35V37V39V41H146ZM168 41H166H164H162H160V39V37V35V33V31V29H162H164H166H168H170V31V33V35V37V39V41H168ZM166 39V37V35V33V31H164V33V35V37V39H166ZM180 41H178H176H174H172V39V37V35V33V31V29H174H176V31V33V35V37V39H178V37V35V33V31V29H180H182V31V33V35V37V39V41H180ZM192 41H190V39V37H188V39V41H186H184V39V37V35V33V31V29H186H188H190H192H194V31V33V35H192V37H194V39V41H192ZM190 35V33V31H188V33V35H190ZM212 41H210H208H206V39V37V35V33V31V29H208H210H212H214H216V31V33V35V37V39H214V41H212ZM212 39V37V35V33V31H210V33V35V37V39H212ZM224 41H222H220H218V39H220V37V35V33V31H218V29H220H222H224H226V31H224V33V35V37V39H226V41H224ZM236 41H234H232H230H228V39V37H230H232V39H234V37V35H232H230H228V33V31V29H230H232H234H236H238V31H236H234H232V33H234H236H238V35V37V39V41H236ZM248 41H246H244H242H240V39V37V35V33V31V29H242H244H246H248H250V31V33H248H246V31H244V33V35V37V39H246V37H248H250V39V41H248ZM260 41H258H256H254H252V39V37V35V33V31V29H254H256H258H260H262V31V33V35V37V39V41H260ZM258 39V37V35V33V31H256V33V35V37V39H258ZM272 41H270V39V37H268V39V41H266H264V39V37V35V33V31V29H266H268H270H272H274V31V33V35H272V37H274V39V41H272ZM270 35V33V31H268V33V35H270ZM282 41H280H278H276V39V37V35V33V31V29H278H280H282H284H286V31V33V35V37V39H284V41H282ZM282 39V37V35V33V31H280V33V35V37V39H282Z" fill="white"/>
<g clip-path="url(#clip0_6_5882)">
<path d="M75.1904 34.3899C74.9118 34.4129 74.6519 34.5397 74.4625 34.7454C74.2731 34.951 74.168 35.2204 74.168 35.4999C74.168 35.7795 74.2731 36.0489 74.4625 36.2545C74.6519 36.4601 74.9118 36.587 75.1904 36.6099C75.3303 36.6042 75.4677 36.5708 75.5947 36.5119C75.7217 36.453 75.8358 36.3696 75.9306 36.2665C76.0253 36.1634 76.0988 36.0426 76.1468 35.9111C76.1948 35.7795 76.2164 35.6398 76.2104 35.4999C76.2173 35.3599 76.1963 35.2198 76.1485 35.0879C76.1008 34.956 76.0274 34.8349 75.9325 34.7316C75.8376 34.6284 75.7231 34.545 75.5957 34.4863C75.4683 34.4277 75.3306 34.3949 75.1904 34.3899ZM78.8404 34.3899C78.6169 34.3711 78.393 34.4201 78.1978 34.5306C78.0027 34.6411 77.8454 34.808 77.7467 35.0093C77.6479 35.2107 77.6123 35.4372 77.6444 35.6591C77.6765 35.8811 77.7748 36.0882 77.9266 36.2533C78.0783 36.4185 78.2764 36.5339 78.4948 36.5846C78.7133 36.6354 78.942 36.6189 79.1509 36.5375C79.3599 36.4561 79.5394 36.3135 79.666 36.1284C79.7926 35.9432 79.8604 35.7242 79.8604 35.4999C79.8664 35.3601 79.8448 35.2203 79.7968 35.0888C79.7488 34.9573 79.6753 34.8365 79.5806 34.7334C79.4858 34.6303 79.3717 34.5469 79.2447 34.488C79.1177 34.429 78.9803 34.3957 78.8404 34.3899Z" fill="white"/>
<path d="M83.7 26H70.3C70.0301 26.0007 69.763 26.0545 69.514 26.1583C69.2649 26.2622 69.0387 26.4141 68.8484 26.6054C68.658 26.7967 68.5072 27.0236 68.4045 27.2732C68.3019 27.5228 68.2493 27.7901 68.25 28.06V41.58C68.2493 41.8499 68.3019 42.1172 68.4045 42.3668C68.5072 42.6164 68.658 42.8433 68.8484 43.0346C69.0387 43.2259 69.2649 43.3778 69.514 43.4817C69.763 43.5855 70.0301 43.6393 70.3 43.64H81.64L81.11 41.79L82.39 42.98L83.6 44.105L85.75 46V28.06C85.7507 27.7901 85.6982 27.5228 85.5955 27.2732C85.4928 27.0236 85.342 26.7967 85.1516 26.6054C84.9613 26.4141 84.7351 26.2622 84.486 26.1583C84.237 26.0545 83.9699 26.0007 83.7 26V26ZM79.84 39.06C79.84 39.06 79.48 38.625 79.18 38.25C79.9049 38.0794 80.546 37.6578 80.99 37.06C80.6302 37.2995 80.2444 37.4974 79.84 37.65C79.3748 37.8486 78.8883 37.9929 78.39 38.08C77.5336 38.2378 76.6552 38.2344 75.8 38.07C75.2979 37.9718 74.8059 37.8278 74.33 37.64C73.9295 37.4857 73.5472 37.2879 73.19 37.05C73.618 37.6353 74.237 38.0527 74.94 38.23C74.64 38.605 74.27 39.06 74.27 39.06C73.676 39.076 73.0871 38.9458 72.5553 38.6807C72.0234 38.4157 71.5649 38.0239 71.22 37.54C71.2525 35.5127 71.7448 33.5193 72.66 31.71C73.4654 31.0775 74.4472 30.7106 75.47 30.66L75.57 30.785C74.6095 31.0239 73.7134 31.4712 72.945 32.095C72.945 32.095 73.165 31.97 73.535 31.805C74.2541 31.4786 75.0202 31.2677 75.805 31.18C75.861 31.1684 75.9179 31.1617 75.975 31.16C76.6429 31.0681 77.3193 31.0564 77.99 31.125C79.0463 31.2456 80.0689 31.5718 81 32.085C80.2688 31.492 79.4201 31.0608 78.51 30.82L78.65 30.66C79.6728 30.7106 80.6547 31.0775 81.46 31.71C82.3752 33.5193 82.8676 35.5127 82.9 37.54C82.5524 38.0235 82.0919 38.4147 81.5586 38.6796C81.0252 38.9445 80.4353 39.0751 79.84 39.06Z" fill="white"/>
</g>
<defs>
<clipPath id="clip0_6_5882">
<rect width="20" height="20" fill="white" transform="translate(67 26)"/>
</clipPath>
</defs>
</svg>
