<svg width="183" height="72" viewBox="0 0 183 72" fill="none" xmlns="http://www.w3.org/2000/svg">
<rect x="6" y="6" width="171" height="60" fill="#00AC54"/>
<rect x="3" y="6" width="6" height="60" fill="#008C44"/>
<rect x="174" y="6" width="6" height="60" fill="#008C44"/>
<rect x="6" y="3" width="171" height="6" fill="#01C962"/>
<rect x="6" y="63" width="171" height="6" fill="#004C25"/>
<rect y="6" width="3" height="60" fill="black"/>
<rect x="9" y="12" width="3" height="48" fill="white"/>
<rect x="172" y="12" width="3" height="48" fill="white"/>
<rect x="180" y="6" width="3" height="60" fill="black"/>
<rect x="3" y="3" width="3" height="3" fill="black"/>
<rect x="177" y="3" width="3" height="3" fill="black"/>
<rect x="174" y="6" width="3" height="3" fill="#E4EAE7"/>
<rect x="174" y="63" width="3" height="3" fill="#E4EAE7"/>
<rect x="6" y="63" width="3" height="3" fill="#E4EAE7"/>
<rect x="6" y="6" width="3" height="3" fill="#E4EAE7"/>
<rect x="6" y="63" width="3" height="3" fill="#E4EAE7"/>
<rect x="12" y="9" width="160" height="3" fill="white"/>
<rect x="12" y="60" width="160" height="3" fill="white"/>
<rect x="177" y="66" width="3" height="3" fill="black"/>
<rect x="3" y="66" width="3" height="3" fill="black"/>
<rect x="6" width="171" height="3" fill="black"/>
<rect x="6" y="69" width="171" height="3" fill="black"/>
<path d="M38 40H40V42H38H36H34H32H30V40V38V36V34V32V30H32H34V32V34V36V38V40H36H38ZM50 42H48H46H44H42V40V38V36V34V32V30H44H46H48H50H52V32H50H48H46V34H48H50V36H48H46V38V40H48V38H50H52V40V42H50ZM62 42H60V40V38H58V40V42H56H54V40V38V36V34V32V30H56H58H60H62H64V32V34V36V38V40V42H62ZM60 36V34V32H58V34V36H60ZM74 42H72V40V38H70V40V42H68H66V40V38V36V34V32V30H68H70H72H74H76V32V34V36H74V38H76V40V42H74ZM72 36V34V32H70V34V36H72ZM88 42H86V40V38H84V36H82V38V40V42H80H78V40V38V36V34V32V30H80H82V32H84V34H86V32V30H88H90V32V34V36V38V40V42H88ZM108 38V36H106V38V40V42H104H102V40V38V36V34V32V30H104H106V32H108V34H110V32H112V30H114H116V32V34V36V38V40V42H114H112V40V38V36H110V38H108ZM126 42H124H122H120H118V40V38V36V34V32V30H120H122H124H126H128V32V34V36V38V40V42H126ZM124 40V38V36V34V32H122V34V36V38V40H124ZM138 42H136V40V38H134V40V42H132H130V40V38V36V34V32V30H132H134H136H138H140V32V34V36H138V38H140V40V42H138ZM136 36V34V32H134V34V36H136ZM150 42H148H146H144H142V40V38V36V34V32V30H144H146H148H150H152V32H150H148H146V34H148H150V36H148H146V38V40H148V38H150H152V40V42H150Z" fill="white"/>
</svg>
