<svg width="128" height="22" viewBox="0 0 128 22" fill="none" xmlns="http://www.w3.org/2000/svg">
<g filter="url(#filter0_d_1_4)">
<path d="M0 21V14H7V17.5H10.5V10.5H0V0H17.5V3.5H7V7H17.5V21H0Z" fill="#00AC54"/>
<path d="M28 21V3.5H21V0H42V3.5H35V21H28Z" fill="#00AC54"/>
<path d="M56 21V14H52.5V21H45.5V0H63V21H56ZM56 10.5V3.5H52.5V10.5H56Z" fill="#00AC54"/>
<path d="M66.5 21V0H84V7H77V3.5H73.5V17.5H77V14H84V21H66.5Z" fill="#00AC54"/>
<path d="M98 21V10.5H94.5V21H87.5V0H94.5V7H98V0H105V7H101.5V10.5H105V21H98Z" fill="#00AC54"/>
<path d="M108.5 21V14H115.5V17.5H119V10.5H108.5V0H126V3.5H115.5V7H126V21H108.5Z" fill="#00AC54"/>
</g>
<defs>
<filter id="filter0_d_1_4" x="0" y="0" width="128" height="22" filterUnits="userSpaceOnUse" color-interpolation-filters="sRGB">
<feFlood flood-opacity="0" result="BackgroundImageFix"/>
<feColorMatrix in="SourceAlpha" type="matrix" values="0 0 0 0 0 0 0 0 0 0 0 0 0 0 0 0 0 0 127 0" result="hardAlpha"/>
<feOffset dx="2" dy="1"/>
<feComposite in2="hardAlpha" operator="out"/>
<feColorMatrix type="matrix" values="0 0 0 0 0 0 0 0 0 0.258333 0 0 0 0 0.126163 0 0 0 1 0"/>
<feBlend mode="normal" in2="BackgroundImageFix" result="effect1_dropShadow_1_4"/>
<feBlend mode="normal" in="SourceGraphic" in2="effect1_dropShadow_1_4" result="shape"/>
</filter>
</defs>
</svg>
