<svg width="358" height="72" viewBox="0 0 358 72" fill="none" xmlns="http://www.w3.org/2000/svg">
<rect x="6" y="6" width="346" height="60" fill="#00AC54"/>
<rect x="3.11273" y="6" width="6" height="60" fill="#008C44"/>
<rect x="348.887" y="6" width="6" height="60" fill="#008C44"/>
<rect x="6" y="3" width="346" height="6" fill="#01C962"/>
<rect x="6" y="63" width="346" height="6" fill="#004C25"/>
<rect x="0.112732" y="6" width="3" height="60" fill="black"/>
<rect x="9.11273" y="12" width="3" height="48" fill="white"/>
<rect x="346" y="12" width="3" height="48" fill="white"/>
<rect x="354.887" y="6" width="3" height="60" fill="black"/>
<rect x="3.11273" y="3" width="3" height="3" fill="black"/>
<rect x="352" y="3" width="3" height="3" fill="black"/>
<rect x="349" y="6" width="3" height="3" fill="#E4EAE7"/>
<rect x="349" y="63" width="3" height="3" fill="#E4EAE7"/>
<rect x="6.11273" y="6" width="3" height="3" fill="#E4EAE7"/>
<rect x="6.11273" y="63" width="3" height="3" fill="#E4EAE7"/>
<rect x="12" y="9" width="334" height="3" fill="white"/>
<rect x="12" y="60" width="337" height="3" fill="white"/>
<rect x="352" y="66" width="3" height="3" fill="black"/>
<rect x="3.11273" y="66" width="3" height="3" fill="black"/>
<rect x="6" width="346" height="3" fill="black"/>
<rect x="6" y="69" width="346" height="3" fill="black"/>
<path d="M55 41H53V39V37H51V39V41H49H47V39V37V35V33V31V29H49H51H53H55H57V31V33V35H55V37H57V39V41H55ZM53 35V33V31H51V33V35H53ZM67 41H65H63H61H59V39V37V35V33V31V29H61H63H65H67H69V31H67H65H63V33H65H67V35H65H63V37V39H65V37H67H69V39V41H67ZM79 41H77H75H73H71V39V37V35V33V31V29H73H75H77H79H81V31V33H79H77V31H75V33V35V37V39H77V37V35H79H81V37V39V41H79ZM89 41H87H85H83V39H85V37V35V33V31H83V29H85H87H89H91V31H89V33V35V37V39H91V41H89ZM101 41H99H97H95H93V39V37H95H97V39H99V37V35H97H95H93V33V31V29H95H97H99H101H103V31H101H99H97V33H99H101H103V35V37V39V41H101ZM111 41H109V39V37V35V33V31H107H105V29H107H109H111H113H115H117V31H115H113V33V35V37V39V41H111ZM127 41H125H123H121H119V39V37V35V33V31V29H121H123H125H127H129V31H127H125H123V33H125H127V35H125H123V37V39H125V37H127H129V39V41H127ZM139 41H137V39V37H135V39V41H133H131V39V37V35V33V31V29H133H135H137H139H141V31V33V35H139V37H141V39V41H139ZM137 35V33V31H135V33V35H137ZM155 41H153V39V37V35V33V31V29H155H157H159H161H163V31H161H159H157V33V35H159H161H163V37H161H159H157V39V41H155ZM173 41H171H169H167H165V39V37V35V33V31V29H167H169H171H173H175V31V33V35V37V39V41H173ZM171 39V37V35V33V31H169V33V35V37V39H171ZM185 41H183V39V37H181V39V41H179H177V39V37V35V33V31V29H179H181H183H185H187V31V33V35H185V37H187V39V41H185ZM183 35V33V31H181V33V35H183ZM211 41H209V39H207V37H205V39H203V41H201H199V39V37V35V33V31V29H201H203V31V33V35H205V33H207V35H209V33V31V29H211H213V31V33V35V37V39V41H211ZM223 41H221V39V37V35H219V37V39V41H217H215V39V37V35V33V31V29H217H219V31V33H221V31V29H223H225V31V33V35V37V39V41H223ZM233 41H231H229H227V39H229V37V35V33V31H227V29H229H231H233H235V31H233V33V35V37V39H235V41H233ZM243 41H241V39V37V35V33V31H239H237V29H239H241H243H245H247H249V31H247H245V33V35V37V39V41H243ZM259 41H257H255H253H251V39V37V35V33V31V29H253H255H257H259H261V31H259H257H255V33H257H259V35H257H255V37V39H257V37H259H261V39V41H259ZM271 39H273V41H271H269H267H265H263V39V37V35V33V31V29H265H267V31V33V35V37V39H269H271ZM281 41H279H277H275V39H277V37V35V33V31H275V29H277H279H281H283V31H281V33V35V37V39H283V41H281ZM293 41H291H289H287H285V39V37H287H289V39H291V37V35H289H287H285V33V31V29H287H289H291H293H295V31H293H291H289V33H291H293H295V35V37V39V41H293ZM303 41H301V39V37V35V33V31H299H297V29H299H301H303H305H307H309V31H307H305V33V35V37V39V41H303Z" fill="white"/>
</svg>
