<svg width="52" height="23" viewBox="0 0 52 23" fill="none" xmlns="http://www.w3.org/2000/svg">
<rect x="1" y="1" width="50" height="21" fill="#00AC54"/>
<path d="M11.792 16.084C11.176 16.084 10.624 15.984 10.136 15.784C9.648 15.584 9.256 15.288 8.96 14.896C8.672 14.504 8.52 14.032 8.504 13.48H10.688C10.72 13.792 10.828 14.032 11.012 14.2C11.196 14.36 11.436 14.44 11.732 14.44C12.036 14.44 12.276 14.372 12.452 14.236C12.628 14.092 12.716 13.896 12.716 13.648C12.716 13.44 12.644 13.268 12.5 13.132C12.364 12.996 12.192 12.884 11.984 12.796C11.784 12.708 11.496 12.608 11.12 12.496C10.576 12.328 10.132 12.16 9.788 11.992C9.444 11.824 9.148 11.576 8.9 11.248C8.652 10.92 8.528 10.492 8.528 9.964C8.528 9.18 8.812 8.568 9.38 8.128C9.948 7.68 10.688 7.456 11.6 7.456C12.528 7.456 13.276 7.68 13.844 8.128C14.412 8.568 14.716 9.184 14.756 9.976H12.536C12.52 9.704 12.42 9.492 12.236 9.34C12.052 9.18 11.816 9.1 11.528 9.1C11.28 9.1 11.08 9.168 10.928 9.304C10.776 9.432 10.7 9.62 10.7 9.868C10.7 10.14 10.828 10.352 11.084 10.504C11.34 10.656 11.74 10.82 12.284 10.996C12.828 11.18 13.268 11.356 13.604 11.524C13.948 11.692 14.244 11.936 14.492 12.256C14.74 12.576 14.864 12.988 14.864 13.492C14.864 13.972 14.74 14.408 14.492 14.8C14.252 15.192 13.9 15.504 13.436 15.736C12.972 15.968 12.424 16.084 11.792 16.084ZM20.1108 16.084C19.3188 16.084 18.5908 15.9 17.9268 15.532C17.2708 15.164 16.7468 14.652 16.3548 13.996C15.9708 13.332 15.7788 12.588 15.7788 11.764C15.7788 10.94 15.9708 10.2 16.3548 9.544C16.7468 8.888 17.2708 8.376 17.9268 8.008C18.5908 7.64 19.3188 7.456 20.1108 7.456C20.9028 7.456 21.6268 7.64 22.2828 8.008C22.9468 8.376 23.4668 8.888 23.8428 9.544C24.2268 10.2 24.4188 10.94 24.4188 11.764C24.4188 12.588 24.2268 13.332 23.8428 13.996C23.4588 14.652 22.9388 15.164 22.2828 15.532C21.6268 15.9 20.9028 16.084 20.1108 16.084ZM20.1108 14.212C20.7828 14.212 21.3188 13.988 21.7188 13.54C22.1268 13.092 22.3308 12.5 22.3308 11.764C22.3308 11.02 22.1268 10.428 21.7188 9.988C21.3188 9.54 20.7828 9.316 20.1108 9.316C19.4308 9.316 18.8868 9.536 18.4788 9.976C18.0788 10.416 17.8788 11.012 17.8788 11.764C17.8788 12.508 18.0788 13.104 18.4788 13.552C18.8868 13.992 19.4308 14.212 20.1108 14.212ZM29.5444 16.084C28.7524 16.084 28.0244 15.9 27.3604 15.532C26.7044 15.164 26.1804 14.652 25.7884 13.996C25.4044 13.332 25.2124 12.588 25.2124 11.764C25.2124 10.94 25.4044 10.2 25.7884 9.544C26.1804 8.888 26.7044 8.376 27.3604 8.008C28.0244 7.64 28.7524 7.456 29.5444 7.456C30.3364 7.456 31.0604 7.64 31.7164 8.008C32.3804 8.376 32.9004 8.888 33.2764 9.544C33.6604 10.2 33.8524 10.94 33.8524 11.764C33.8524 12.588 33.6604 13.332 33.2764 13.996C32.8924 14.652 32.3724 15.164 31.7164 15.532C31.0604 15.9 30.3364 16.084 29.5444 16.084ZM29.5444 14.212C30.2164 14.212 30.7524 13.988 31.1524 13.54C31.5604 13.092 31.7644 12.5 31.7644 11.764C31.7644 11.02 31.5604 10.428 31.1524 9.988C30.7524 9.54 30.2164 9.316 29.5444 9.316C28.8644 9.316 28.3204 9.536 27.9124 9.976C27.5124 10.416 27.3124 11.012 27.3124 11.764C27.3124 12.508 27.5124 13.104 27.9124 13.552C28.3204 13.992 28.8644 14.212 29.5444 14.212ZM42.53 16H40.478L37.046 10.804V16H34.994V7.576H37.046L40.478 12.796V7.576H42.53V16Z" fill="white"/>
<rect x="1" y="1" width="50" height="21" stroke="black" stroke-width="2"/>
</svg>
