<svg width="48" height="48" viewBox="0 0 48 48" fill="none" xmlns="http://www.w3.org/2000/svg">
<rect width="48" height="48" rx="24" fill="#00AC54"/>
<g clip-path="url(#clip0_11_6574)">
<path d="M32.5713 18.6964C31.9284 18.9642 31.2856 19.1785 30.5356 19.2321C31.2856 18.8035 31.8213 18.1071 32.0892 17.3035C31.3927 17.7321 30.6427 17.9999 29.8392 18.1606C29.1963 17.4642 28.2856 17.0356 27.3213 17.0356C25.3927 17.0356 23.7856 18.5892 23.7856 20.5714C23.7856 20.8392 23.8392 21.1071 23.8927 21.3749C20.9463 21.2142 18.3749 19.8214 16.607 17.6785C16.2856 18.2142 16.1249 18.8035 16.1249 19.4464C16.1249 20.6785 16.7677 21.7499 17.6784 22.3928C17.0892 22.3928 16.5534 22.2321 16.0713 21.9642V22.0178C16.0713 23.7321 17.3034 25.1249 18.9106 25.4464C18.5892 25.4999 18.3213 25.5535 17.9999 25.5535C17.7856 25.5535 17.5713 25.5535 17.357 25.4999C17.7856 26.8928 19.1249 27.9106 20.6249 27.9642C19.4463 28.9285 17.8927 29.4642 16.232 29.4642C15.9642 29.4642 15.6427 29.4642 15.3749 29.4106C16.982 30.3749 18.857 30.9642 20.8392 30.9642C27.3213 30.9642 30.857 25.6071 30.857 20.9464C30.857 20.7856 30.857 20.6249 30.857 20.5178C31.4999 19.9821 32.0892 19.3928 32.5713 18.6964Z" fill="white"/>
</g>
<defs>
<clipPath id="clip0_11_6574">
<rect width="17.1429" height="17.1429" fill="white" transform="translate(15.4285 15.4287)"/>
</clipPath>
</defs>
</svg>
