<svg width="48" height="48" viewBox="0 0 48 48" fill="none" xmlns="http://www.w3.org/2000/svg">
<rect width="48" height="48" rx="24" fill="#FCFCF9"/>
<g clip-path="url(#clip0_10_5294)">
<path d="M32.5713 18.6966C31.9284 18.9645 31.2856 19.1787 30.5356 19.2323C31.2856 18.8037 31.8213 18.1073 32.0892 17.3037C31.3927 17.7323 30.6427 18.0002 29.8392 18.1609C29.1963 17.4645 28.2856 17.0359 27.3213 17.0359C25.3927 17.0359 23.7856 18.5895 23.7856 20.5716C23.7856 20.8395 23.8392 21.1073 23.8927 21.3752C20.9463 21.2145 18.3749 19.8216 16.607 17.6787C16.2856 18.2145 16.1249 18.8037 16.1249 19.4466C16.1249 20.6787 16.7677 21.7502 17.6784 22.393C17.0892 22.393 16.5534 22.2323 16.0713 21.9645V22.018C16.0713 23.7323 17.3034 25.1252 18.9106 25.4466C18.5892 25.5002 18.3213 25.5537 17.9999 25.5537C17.7856 25.5537 17.5713 25.5537 17.357 25.5002C17.7856 26.893 19.1249 27.9109 20.6249 27.9645C19.4463 28.9287 17.8927 29.4645 16.232 29.4645C15.9642 29.4645 15.6427 29.4645 15.3749 29.4109C16.982 30.3752 18.857 30.9645 20.8392 30.9645C27.3213 30.9645 30.857 25.6073 30.857 20.9466C30.857 20.7859 30.857 20.6252 30.857 20.518C31.4999 19.9823 32.0892 19.393 32.5713 18.6966Z" fill="#22252D"/>
</g>
<defs>
<clipPath id="clip0_10_5294">
<rect width="17.1429" height="17.1429" fill="white" transform="translate(15.4285 15.4287)"/>
</clipPath>
</defs>
</svg>
