<svg width="237" height="72" viewBox="0 0 237 72" fill="none" xmlns="http://www.w3.org/2000/svg">
<rect x="6" y="6" width="226" height="60" fill="#00AC54"/>
<rect x="3" y="6" width="6" height="60" fill="#008C44"/>
<rect x="228" y="6" width="6" height="60" fill="#008C44"/>
<rect x="6" y="3" width="225" height="6" fill="#01C962"/>
<rect x="6" y="63" width="225" height="6" fill="#004C25"/>
<rect y="6" width="3" height="60" fill="black"/>
<rect x="9" y="12" width="3" height="48" fill="white"/>
<rect x="226" y="12" width="3" height="48" fill="white"/>
<rect x="234" y="6" width="3" height="60" fill="black"/>
<rect x="3" y="3" width="3" height="3" fill="black"/>
<rect x="231" y="3" width="3" height="3" fill="black"/>
<rect x="228" y="6" width="3" height="3" fill="#E4EAE7"/>
<rect x="228" y="63" width="3" height="3" fill="#E4EAE7"/>
<rect x="6" y="63" width="3" height="3" fill="#E4EAE7"/>
<rect x="6" y="6" width="3" height="3" fill="#E4EAE7"/>
<rect x="6" y="63" width="3" height="3" fill="#E4EAE7"/>
<rect x="12" y="9" width="214" height="3" fill="white"/>
<rect x="12" y="60" width="214" height="3" fill="white"/>
<rect x="231" y="66" width="3" height="3" fill="black"/>
<rect x="3" y="66" width="3" height="3" fill="black"/>
<rect x="6" width="225" height="3" fill="black"/>
<rect x="6" y="69" width="225" height="3" fill="black"/>
<path d="M38 42H36H34H32H30V40V38V36V34V32V30H32H34H36H38H40V32V34H38H36V32H34V34V36V38V40H36V38H38H40V40V42H38ZM50 42H48H46H44H42V40V38V36V34V32V30H44H46H48H50H52V32V34V36V38V40V42H50ZM48 40V38V36V34V32H46V34V36V38V40H48ZM64 42H62V40V38H60V36H58V38V40V42H56H54V40V38V36V34V32V30H56H58V32H60V34H62V32V30H64H66V32V34V36V38V40V42H64ZM78 42H76V40V38H74V36H72V38V40V42H70H68V40V38V36V34V32V30H70H72V32H74V34H76V32V30H78H80V32V34V36V38V40V42H78ZM90 42H88H86H84H82V40V38V36V34V32V30H84H86H88H90H92V32H90H88H86V34H88H90V36H88H86V38V40H88V38H90H92V40V42H90ZM102 42H100H98H96H94V40V38V36V34V32V30H96H98H100H102H104V32V34H102H100V32H98V34V36V38V40H100V38H102H104V40V42H102ZM112 42H110V40V38V36V34V32H108H106V30H108H110H112H114H116H118V32H116H114V34V36V38V40V42H112ZM142 42H140V40H138V38H136V40H134V42H132H130V40V38V36V34V32V30H132H134V32V34V36H136V34H138V36H140V34V32V30H142H144V32V34V36V38V40V42H142ZM154 42H152V40V38H150V40V42H148H146V40V38V36V34V32V30H148H150H152H154H156V32V34V36V38V40V42H154ZM152 36V34V32H150V34V36H152ZM166 40H168V42H166H164H162H160H158V40V38V36V34V32V30H160H162V32V34V36V38V40H164H166ZM178 40H180V42H178H176H174H172H170V40V38V36V34V32V30H172H174V32V34V36V38V40H176H178ZM190 42H188H186H184H182V40V38V36V34V32V30H184H186H188H190H192V32H190H188H186V34H188H190V36H188H186V38V40H188V38H190H192V40V42H190ZM200 42H198V40V38V36V34V32H196H194V30H196H198H200H202H204H206V32H204H202V34V36V38V40V42H200Z" fill="white"/>
</svg>
