<?xml version="1.0" encoding="utf-8"?>
<!-- Generator: Adobe Illustrator 22.0.0, SVG Export Plug-In . SVG Version: 6.00 Build 0)  -->
<svg version="1.1" id="Layer_1" xmlns="http://www.w3.org/2000/svg" xmlns:xlink="http://www.w3.org/1999/xlink" x="0px" y="0px"
	 viewBox="0 0 1280 702.1" style="enable-background:new 0 0 1280 702.1;" xml:space="preserve">
<style type="text/css">
	.st0{opacity:0.4;fill:#00AC54;}
	.st1{fill:none;stroke:#008D45;stroke-linejoin:round;}
	.st2{fill:none;stroke:#008D45;stroke-linejoin:round;stroke-dasharray:3.0025,2.5021;}
	.st3{fill:none;stroke:#008D45;stroke-width:2;stroke-miterlimit:10;}
	.st4{fill:#FFFFFF;stroke:#89B5F4;stroke-miterlimit:10;}
	.st5{fill:#E9F1FF;stroke:#89B5F4;stroke-miterlimit:10;}
	.st6{fill:none;stroke:#008D45;stroke-linejoin:round;stroke-dasharray:3.0362,2.0242;}
	.st7{fill:none;stroke:#008D45;stroke-linejoin:round;stroke-dasharray:2.9636,1.9757;}
	.st8{fill:none;stroke:#008D45;stroke-width:2;stroke-linecap:round;stroke-linejoin:round;stroke-miterlimit:10;}
	.st9{fill:none;stroke:#008D45;stroke-miterlimit:10;}
	.st10{fill:#FFAC06;}
	.st11{fill:#FFFFFF;}
	.st12{fill:#00AC54;}
	.st13{clip-path:url(#SVGID_2_);fill:#FFFFFF;}
	.st14{fill:none;stroke:#008D45;stroke-miterlimit:10;stroke-dasharray:3,2;}
	.st15{fill:#008D45;}
	.st16{fill:none;stroke:#008D45;stroke-miterlimit:10;stroke-dasharray:2.9849,1.99;}
	.st17{fill:none;stroke:#008D45;stroke-linejoin:round;stroke-miterlimit:10;}
	.st18{fill:none;stroke:#008D45;stroke-width:0.75;stroke-linejoin:round;stroke-miterlimit:10;}
	.st19{fill:none;stroke:#008D45;stroke-linecap:round;stroke-miterlimit:10;}
	.st20{fill:none;stroke:#008D45;stroke-linecap:round;stroke-linejoin:round;stroke-miterlimit:10;}
	.st21{fill:#A1C7FF;}
	.st22{fill:#E9F1FF;}
	.st23{fill:#FFCD2E;}
	.st24{fill:#FFCC5A;}
	.st25{fill:#FFEAD7;}
	.st26{fill:#FE881C;}
	.st27{fill:#212237;}
	.st28{fill:#FFCEB6;}
	.st29{fill:none;stroke:#008D45;stroke-width:0.5;stroke-miterlimit:10;}
	.st30{fill:#F2B18F;}
	.st31{fill:#FFD9C0;}
	.st32{fill:#FFC088;}
	.st33{fill:#FFAF5F;}
	.st34{fill:#F78D37;}
	.st35{fill:#FFCDA4;}
	.st36{fill:#C7E2FF;}
	.st37{fill:#F0F8FF;}
	.st38{clip-path:url(#SVGID_4_);fill:#A4D0FF;}
	.st39{clip-path:url(#SVGID_6_);fill:#C7E2FF;}
	.st40{fill:#FF7D12;}
	.st41{fill:#22252D;}
	.st42{fill:#FFD19F;}
	.st43{fill:#B8DAFF;}
	.st44{fill:#6486F2;}
	.st45{fill:#FF8F08;}
	.st46{fill:#FFD8BD;}
	.st47{fill:#FFC69F;}
	.st48{fill:#037235;}
</style>
<path class="st0" d="M799.8,154c2,0,3.9,0.4,5.6,1.2c-0.2-0.8-0.3-1.6-0.3-2.4c0-5.6,4.6-10.2,10.2-10.2c4.6,0,8.5,3.1,9.8,7.3
	c0.5-12.3,10.6-22.1,23-22.1c12.7,0,23,10.3,23,23c0,1.5-0.2,3-0.4,4.4c2.9-3.4,7.2-5.6,12-5.6c8.8,0,15.9,7.1,15.9,15.9
	c0,8.8-7.1,15.9-15.9,15.9c-8.8,0-75.3,0-82.9,0s-13.7-6.1-13.7-13.7C786,160.2,792.2,154,799.8,154z"/>
<path class="st1" d="M532.9,540.7c-0.5-0.1-1-0.2-1.5-0.3"/>
<path class="st2" d="M529,539.9c-51.3-8.9-119.4,20.1-171.1,24.6c-100.3,8.9-160.1-37-186.5-82.1c-33-56.5-22.9-129.7,33.9-184.2
	c63.5-61,129.4-55.8,207.6-81.8c70.3-23.4,129.3-81.8,183.2-142.8C686.6-28.7,860.5-11.2,907,139.3c15.9,51.3,18.9,102.2,68.3,133.9
	c59.6,38.2,135.9,34.1,200.5,59.5c54.9,21.6,97.7,78.2,88,139c-10.8,67.4-79.1,120.5-141,138.8c-65.9,19.5-127.9,11.2-194.4,14.6"/>
<path class="st1" d="M927.1,625.1c-0.5,0-1,0.1-1.5,0.1"/>
<line class="st3" x1="521.1" y1="702.1" x2="535.9" y2="586.5"/>
<line class="st3" x1="709.8" y1="702.1" x2="695" y2="586.5"/>
<rect x="429" y="97.6" class="st4" width="373" height="498.1"/>
<rect x="449.5" y="118" class="st5" width="332.1" height="457.2"/>
<path class="st1" d="M556.1,343.1c0.8-0.5,1.3-0.8,1.3-0.8s0.2,0.5,0.5,1.4"/>
<path class="st6" d="M558.6,345.5c5.2,14.5,24.7,72.4,6.4,79.5c-18.4,7.1-36.7,52.6-40.8,63.5"/>
<path class="st1" d="M523.8,489.4c-0.3,0.9-0.5,1.4-0.5,1.4c0,0-0.1-0.5-0.2-1.5"/>
<path class="st7" d="M522.7,487.4c-2.1-13.5-9.4-63.7-3.5-92.4c5.8-28.2,29-46.4,36.1-51.4"/>
<path class="st1" d="M676.5,343.1c-0.8-0.5-1.3-0.8-1.3-0.8s-0.2,0.5-0.5,1.4"/>
<path class="st6" d="M674,345.5c-5.2,14.5-24.7,72.4-6.4,79.5c18.4,7.1,36.7,52.6,40.9,63.5"/>
<path class="st1" d="M708.8,489.4c0.3,0.9,0.5,1.4,0.5,1.4c0,0,0.1-0.5,0.2-1.5"/>
<path class="st7" d="M709.9,487.4c2.1-13.5,9.4-63.7,3.5-92.4c-5.8-28.2-29-46.4-36.1-51.4"/>
<line class="st8" x1="616" y1="199.6" x2="616" y2="157.7"/>
<path class="st9" d="M661.9,426.6c2.7,51.2-45.6,82.3-45.6,82.3s-45.7-30.2-45.6-82.3C570.7,403,660.6,403.1,661.9,426.6z"/>
<path class="st9" d="M616.5,492.4c-11.1-9.7-32.3-32.3-33-64c3.3-2.5,14.7-6.2,32.3-6.2c18.5,0,30.2,4.1,33.4,6.7
	C650.2,460,628.1,482.7,616.5,492.4z"/>
<path class="st9" d="M616.7,474.5c-8-8.8-20.3-28.6-19.7-46.1c4.2-1,10.5-1.9,18.7-1.9c9.1,0,15.9,1.1,20.2,2.2
	C636.3,446.5,625,465.7,616.7,474.5z"/>
<path class="st10" d="M674.8,244.7c-19.2-43.6-58.5-62.5-58.5-62.5c-7,2.9-39.4,18.9-58.5,62.5c-23.2,52.6,2.8,188,2.8,188H672
	C672,432.7,698,297.4,674.8,244.7z"/>
<path class="st11" d="M557.8,416.1h117.1c0.4-2.7,0.9-5.7,1.4-8.9H556.4C556.9,410.4,557.3,413.4,557.8,416.1z"/>
<path class="st12" d="M640.9,271.1c0,13.6-11,24.6-24.6,24.6c-13.6,0-24.6-11-24.6-24.6c0-13.6,11-24.6,24.6-24.6
	C629.9,246.5,640.9,257.5,640.9,271.1z"/>
<g>
	<defs>
		<circle id="SVGID_1_" cx="616.3" cy="271.1" r="24.6"/>
	</defs>
	<clipPath id="SVGID_2_">
		<use xlink:href="#SVGID_1_"  style="overflow:visible;"/>
	</clipPath>
	
		<rect x="585.7" y="268.1" transform="matrix(0.6715 -0.741 0.741 0.6715 1.6291 545.7811)" class="st13" width="61.3" height="5.9"/>
	<rect x="591.5" y="275" transform="matrix(0.6719 -0.7406 0.7406 0.6719 -1 551.6169)" class="st13" width="61.3" height="3.8"/>
	
		<rect x="579.3" y="264" transform="matrix(0.6719 -0.7407 0.7407 0.6719 3.2422 539.005)" class="st13" width="61.3" height="3.8"/>
	<use xlink:href="#SVGID_1_"  style="overflow:visible;fill:none;stroke:#008D45;stroke-miterlimit:10;"/>
</g>
<path class="st14" d="M616.3,237.8c-18.4,0-33.3,14.9-33.3,33.3s14.9,33.3,33.3,33.3c18.4,0,33.3-14.9,33.3-33.3
	C649.6,252.7,634.7,237.8,616.3,237.8z M616.3,295.7c-13.6,0-24.6-11-24.6-24.6c0-13.6,11-24.6,24.6-24.6c13.6,0,24.6,11,24.6,24.6
	C640.9,284.7,629.9,295.7,616.3,295.7z"/>
<path class="st15" d="M660.8,220.7c-19.8-26.6-44.5-38.5-44.5-38.5c-5.5,2.3-26.8,12.8-45,38.5L660.8,220.7z"/>
<path class="st11" d="M566.1,228.7h100.2c-0.4-0.6-0.7-1.2-1.1-1.7h-98C566.8,227.5,566.4,228.1,566.1,228.7z"/>
<path class="st16" d="M616.3,351.2c-23.6,3.9-7.6,123.4-1.8,161.7c0.4,2.4,3.3,2.4,3.7,0C623.9,474.6,639.9,355.2,616.3,351.2z"/>
<line class="st17" x1="706.9" y1="161.6" x2="740.7" y2="161.6"/>
<line class="st17" x1="706.9" y1="167.8" x2="760.8" y2="167.8"/>
<line class="st17" x1="706.9" y1="174" x2="760.8" y2="174"/>
<line class="st17" x1="706.9" y1="180.1" x2="760.8" y2="180.1"/>
<line class="st17" x1="479.5" y1="200.1" x2="513.3" y2="200.1"/>
<line class="st17" x1="479.5" y1="206.3" x2="533.4" y2="206.3"/>
<line class="st17" x1="479.5" y1="212.5" x2="533.4" y2="212.5"/>
<line class="st17" x1="479.5" y1="218.6" x2="533.4" y2="218.6"/>
<line class="st17" x1="742.1" y1="272.5" x2="760.9" y2="272.5"/>
<line class="st17" x1="706.9" y1="278.7" x2="760.8" y2="278.7"/>
<line class="st17" x1="706.9" y1="284.9" x2="760.8" y2="284.9"/>
<line class="st17" x1="706.9" y1="291" x2="760.8" y2="291"/>
<line class="st17" x1="505.3" y1="518.1" x2="524.1" y2="518.1"/>
<line class="st17" x1="470.1" y1="524.3" x2="523.9" y2="524.3"/>
<line class="st17" x1="470.1" y1="530.4" x2="523.9" y2="530.4"/>
<line class="st17" x1="470.1" y1="536.6" x2="523.9" y2="536.6"/>
<line class="st17" x1="718.9" y1="509.6" x2="685.4" y2="509.6"/>
<line class="st17" x1="739.3" y1="515.8" x2="685.5" y2="515.8"/>
<line class="st17" x1="739.3" y1="522" x2="685.5" y2="522"/>
<line class="st17" x1="739.3" y1="528.1" x2="685.5" y2="528.1"/>
<polyline class="st18" points="620.7,205.5 656.9,205.5 656.9,169.2 697.1,169.2 "/>
<circle class="st12" cx="620.7" cy="205.5" r="2.1"/>
<polyline class="st18" points="583,271.1 502.1,271.1 502.1,227.2 "/>
<circle class="st12" cx="583" cy="271.1" r="2.1"/>
<polyline class="st18" points="535,390.7 486.6,390.7 486.6,508.9 "/>
<circle class="st12" cx="535" cy="390.7" r="2.1"/>
<polyline class="st18" points="614.4,388.8 659.7,388.8 659.7,508.9 679.8,508.9 "/>
<circle class="st12" cx="614.4" cy="388.8" r="2.1"/>
<polyline class="st18" points="697.7,381 730.7,381 730.7,298.2 "/>
<circle class="st12" cx="697.7" cy="381.5" r="2.1"/>
<path class="st14" d="M906.9,338.9"/>
<line class="st19" x1="817" y1="70.1" x2="840.9" y2="70.1"/>
<line class="st19" x1="920.9" y1="448" x2="944.8" y2="448"/>
<line class="st19" x1="793.8" y1="70.1" x2="808" y2="70.1"/>
<line class="st19" x1="1176.5" y1="287.6" x2="1200.4" y2="287.6"/>
<line class="st19" x1="1153.3" y1="287.6" x2="1167.5" y2="287.6"/>
<line class="st19" x1="942.6" y1="437.5" x2="956.8" y2="437.5"/>
<line class="st19" x1="197.6" y1="398.3" x2="221.5" y2="398.3"/>
<line class="st19" x1="174.4" y1="398.3" x2="188.6" y2="398.3"/>
<circle class="st19" cx="147" cy="220.7" r="4.4"/>
<path class="st19" d="M512.4,65.7c0,2.4-2,4.4-4.4,4.4c-2.4,0-4.4-2-4.4-4.4c0-2.4,2-4.4,4.4-4.4C510.5,61.3,512.4,63.3,512.4,65.7z
	"/>
<path class="st19" d="M1144.9,250.8c0,2.4-2,4.4-4.4,4.4c-2.4,0-4.4-2-4.4-4.4c0-2.4,2-4.4,4.4-4.4
	C1143,246.5,1144.9,248.4,1144.9,250.8z"/>
<circle class="st19" cx="853.3" cy="400" r="4.4"/>
<line class="st19" x1="255.1" y1="339.2" x2="255.1" y2="351.5"/>
<line class="st19" x1="261.2" y1="345.4" x2="249" y2="345.4"/>
<line class="st19" x1="597.7" y1="16.2" x2="597.7" y2="28.5"/>
<line class="st19" x1="603.9" y1="22.4" x2="591.6" y2="22.4"/>
<line class="st19" x1="315.3" y1="111.9" x2="315.3" y2="124.2"/>
<line class="st19" x1="321.4" y1="118" x2="309.2" y2="118"/>
<line class="st19" x1="888.8" y1="206.3" x2="888.8" y2="218.6"/>
<line class="st19" x1="894.9" y1="212.5" x2="882.7" y2="212.5"/>
<line class="st19" x1="1173.9" y1="502.7" x2="1173.9" y2="515"/>
<line class="st19" x1="1180.1" y1="508.9" x2="1167.8" y2="508.9"/>
<ellipse transform="matrix(0.1602 -0.9871 0.9871 0.1602 -246.08 606.7677)" class="st20" cx="233.5" cy="448" rx="22.9" ry="22.9"/>
<path class="st20" d="M238.5,459.4c-18.2,7.8-39.3,12.2-42.4,4.8c-2.5-5.8,8.6-14.4,14.7-18.5l-0.1,3.3c-10,6.6-9.9,10.4-8.9,12.7
	c1.8,4.2,15,4.1,35.7-4.8c20.7-8.9,29.8-18.4,28-22.7c-1-2.3-3.7-5-15.4-2.2l-2.4-2.1c12.1-2.9,21.6-2.4,23.5,1.9
	C274.3,439.2,256.7,451.6,238.5,459.4z"/>
<ellipse transform="matrix(0.1602 -0.9871 0.9871 0.1602 686.4269 1137.0303)" class="st20" cx="1011.4" cy="165.1" rx="32.6" ry="32.6"/>
<path class="st20" d="M1006.3,182.1c-27.1-8-54.1-22.5-50.8-33.5c2.6-8.6,22.6-7.9,32.9-6.8l-3.1,3.5c-17-1.9-20.3,2.3-21.3,5.7
	c-1.9,6.3,12.6,18.2,43.4,27.3c30.8,9.1,49.4,7,51.3,0.7c1-3.5,0.5-8.9-14.8-16.5l-0.7-4.5c15.9,7.9,25.9,17.1,24,23.5
	C1063.9,192.7,1033.3,190.1,1006.3,182.1z"/>
<polygon class="st20" points="910.2,329 880.6,345.4 861.9,343.1 891.5,326.7 "/>
<polygon class="st20" points="893.4,298 863.8,314.3 845.1,312.1 874.7,295.7 "/>
<line class="st20" x1="893.4" y1="298" x2="910.2" y2="329"/>
<line class="st20" x1="863.5" y1="314.6" x2="880.6" y2="345.4"/>
<line class="st20" x1="844.8" y1="312.4" x2="861.9" y2="343.1"/>
<line class="st20" x1="874.4" y1="296" x2="891.5" y2="326.7"/>
<polygon class="st20" points="1165.6,414 1166.3,393.3 1182.2,406.4 1202.1,400.7 1194.6,419.9 1206.2,437 1185.5,435.8 
	1172.9,452.1 1167.6,432.1 1148.2,425.1 "/>
<polygon class="st20" points="388.8,49.1 400.8,37.3 402.9,53.9 417.8,61.7 402.6,68.8 399.9,85.4 388.4,73.2 371.7,75.7 379.8,61 
	372.3,45.9 "/>
<polygon class="st20" points="233.6,165.1 208.1,168.4 174.7,145.6 196.9,140.9 "/>
<polyline class="st20" points="208.1,168.4 227.3,118.7 233.6,165.1 "/>
<polyline class="st20" points="174.7,145.6 227.3,118.7 196.9,140.9 "/>
<path class="st0" d="M183.9,303.9c-3.5,0-6.9,0.8-9.9,2.1c0.3-1.4,0.5-2.8,0.5-4.3c0-9.9-8.1-18-18-18c-8.2,0-15.1,5.5-17.3,12.9
	c-0.9-21.7-18.7-39-40.6-39c-22.5,0-40.7,18.2-40.7,40.7c0,2.6,0.3,5.2,0.8,7.7c-5.1-6-12.8-9.8-21.3-9.8c-15.5,0-28,12.5-28,28
	c0,15.5,12.5,28,28,28s133.1,0,146.5,0c13.4,0,24.2-10.8,24.2-24.2C208.1,314.7,197.3,303.9,183.9,303.9z"/>
<rect x="36.4" y="699.4" class="st21" width="1230.6" height="2.8"/>
<path class="st15" d="M926.8,702.1v-76.9H1213c10.6,0,19.1,8.6,19.1,19.1V683c0,10.5-8.6,19.1-19.1,19.1H926.8z"/>
<path class="st12" d="M1205.9,625.2h-6.8c10.6,0,19.1,8.6,19.1,19.1V683c0,10.5-8.6,19.1-19.1,19.1h6.8c10.6,0,19.1-8.6,19.1-19.1
	v-38.7C1225,633.8,1216.4,625.2,1205.9,625.2z"/>
<path class="st12" d="M1164.9,625.2h-6.8c10.6,0,19.1,8.6,19.1,19.1V683c0,10.5-8.6,19.1-19.1,19.1h6.8c10.6,0,19.1-8.6,19.1-19.1
	v-38.7C1184,633.8,1175.4,625.2,1164.9,625.2z"/>
<path class="st12" d="M866.2,702.1v-76.9h277.1c10.6,0,19.1,8.6,19.1,19.1V683c0,10.5-8.6,19.1-19.1,19.1H866.2z"/>
<path class="st22" d="M1143.3,693H866.2v-58.6h277.1c5.5,0,10,4.5,10,10V683C1153.3,688.5,1148.8,693,1143.3,693z"/>
<line class="st9" x1="1153.3" y1="649.3" x2="886.1" y2="649.3"/>
<line class="st9" x1="1153.3" y1="663.7" x2="1050.5" y2="663.7"/>
<line class="st9" x1="1153.3" y1="677.3" x2="898.9" y2="677.3"/>
<line class="st9" x1="1036.6" y1="663.7" x2="933.8" y2="663.7"/>
<path class="st10" d="M891.9,625.2v-76.9h286.2c10.6,0,19.1,8.6,19.1,19.1v38.7c0,10.5-8.6,19.1-19.1,19.1H891.9z"/>
<path class="st23" d="M1171,548.3h-6.8c10.6,0,19.1,8.6,19.1,19.1v38.7c0,10.5-8.6,19.1-19.1,19.1h6.8c10.5,0,19.1-8.6,19.1-19.1
	v-38.7C1190.1,556.9,1181.6,548.3,1171,548.3z"/>
<path class="st23" d="M1130,548.3h-6.8c10.6,0,19.1,8.6,19.1,19.1v38.7c0,10.5-8.6,19.1-19.1,19.1h6.8c10.6,0,19.1-8.6,19.1-19.1
	v-38.7C1149.2,556.9,1140.6,548.3,1130,548.3z"/>
<path class="st24" d="M831.4,625.2v-76.9h277.1c10.6,0,19.1,8.6,19.1,19.1v38.7c0,10.5-8.6,19.1-19.1,19.1H831.4z"/>
<path class="st25" d="M1108.5,616H831.4v-58.6h277.1c5.5,0,10,4.5,10,10v38.7C1118.4,611.6,1114,616,1108.5,616z"/>
<line class="st9" x1="1118.4" y1="572.4" x2="851.2" y2="572.4"/>
<line class="st9" x1="1118.4" y1="586.7" x2="1015.6" y2="586.7"/>
<line class="st9" x1="1118.4" y1="600.3" x2="864.1" y2="600.3"/>
<line class="st9" x1="1001.7" y1="586.7" x2="898.9" y2="586.7"/>
<path class="st26" d="M1070.3,672.4c0.1,0,0.1-0.1,0-0.1S1070.2,672.4,1070.3,672.4L1070.3,672.4z"/>
<polygon class="st27" points="1016.8,691.4 1067.5,668.3 1065.6,664.3 1014.9,687.4 "/>
<path class="st12" d="M1050.7,650.6l4.9-1c0,0,4.3,5,6.7,8.7c2.5,3.7,3.3,6,3.3,6l-50.7,23.1c0,0,0.2-3.2,9.1-15.8
	c3.5-5,4.5-9.3,4.5-9.3L1050.7,650.6z"/>
<path class="st28" d="M1048.3,632.5l7.3,17.1c0,0-1,3.5-9.6,7.5c-8.6,3.9-17.6,5.2-17.6,5.2l-13.6-26.1"/>
<rect x="1044.4" y="698.4" transform="matrix(1 -1.099999e-03 1.099999e-03 1 -0.7696 1.18)" class="st27" width="55.8" height="3.7"/>
<path class="st12" d="M1092.2,679l4.8,1.1c0,0,1.8,6.3,2.6,10.7c0.7,4.4,0.6,7.6,0.6,7.6l-55.8,0.1c0,0,1.5-3.7,14.8-11.5
	c5.2-3.1,7.9-6.6,7.9-6.6L1092.2,679z"/>
<path class="st28" d="M1097.5,661.5l-0.4,18.6c0,0-2.3,2.8-11.8,2.8c-9.5,0-18.2-2.6-18.2-2.6l-1.6-29.3"/>
<path class="st15" d="M1009.8,387.5c0,0-35.6,90.9-38.7,133.9c-3.1,43,39.9,136.1,39.9,136.1l48.1-19.4c0,0-32.8-82.9-27.6-108.5
	c5.1-25.6,26.6-81.9,26.6-81.9l6.1-67.6"/>
<path class="st15" d="M1095.7,393.4c14.6,27.7,10,131,8.5,164.9c-1.5,33.9,2,111.6,2,111.6h-54.9c0,0-9.4-84.1-12.7-126.4
	c-2.9-36.8-10-100.1-5.6-142.4"/>
<path class="st29" d="M1087.4,416.4c10.5,65.7,5.9,91.3,5.3,140c-0.7,48.6,4,113.4,4,113.4"/>
<line class="st29" x1="1050.3" y1="659.5" x2="1105.6" y2="658.7"/>
<path class="st29" d="M1066,420.8c0.9,17.5,24,15,24,15"/>
<path class="st29" d="M1030.9,421.9c-1.8,36.1,4.2,90.9,4.2,90.9"/>
<path class="st29" d="M1021.4,424c-0.9,26.2,9.3,26.4,9.3,26.4"/>
<path class="st29" d="M1009.9,424.2c-3.7,10.7-16.1,7.8-16.1,7.8"/>
<path class="st29" d="M1033.3,492.8c0,0-10.7,21.3-13.1,42.7c-2.4,21.3,23.3,79,23.3,79"/>
<line class="st29" x1="1006.6" y1="647" x2="1046.8" y2="631.5"/>
<path class="st30" d="M1029.9,237.4c0,0-8.1,21.1-1.4,28.1c3.5,3.7,13.9,4.5,18.4,1.1c3.4-2.6,8.6-18.8,6.8-21.7
	C1046.7,233.8,1029.9,237.4,1029.9,237.4z"/>
<path class="st30" d="M1055,259l1.6,22c0,0-11.5,11.7-23.6-1.2l1.7-14.4L1055,259z"/>
<path class="st27" d="M1050.7,252.4"/>
<path class="st27" d="M1060.4,253.8c0.9-4.5,3.2-7,2.9-12.2c-0.3-5.5-5-6.2-5-6.2s-0.6-2.7-5.1-4.7c-4.5-2-20.4-5.8-27.7,0.4
	c-1.4,1.2-2.9,8.6,2.4,10.3c8.7,2.8,20.4-2.1,22.7,3.4c0.8,2,0.5,4,0.3,5.5c-0.1,0.8-0.2,1.3-0.2,1.9l2.7,1.2
	c3.4,1.4-2.1,7.9-1.1,10.3c0.5,1.3,3.3,1.3,5.4-0.2C1059.8,262.1,1059.4,258.8,1060.4,253.8z"/>
<path class="st30" d="M1052,254.1c2.1-3.2,4.1-2.9,5.3-1.4c1.6,2.1-0.8,6.9-2,7.8c-2.5,1.8-4.7,1.9-5.1-0.3"/>
<path class="st12" d="M1056.6,280.8c0,0-4.9,3.6-12.9,3.6c-8,0-10.6-4.8-10.6-4.8s-31.7,0.8-47.6,16.1c-17.4,16.6-34.3,51.5-20.7,74
	c13.5,22.6,51.5-5.6,51.5-5.6"/>
<path class="st12" d="M1022.5,285.9c-24.5-6.9-26.9,130.9-26.9,130.9c15.9,9.9,110.5,6.7,110.5,6.7s9.3-80.1-20-127.8
	c-5.7-9.3-29.4-14.9-29.4-14.9S1039.7,290.7,1022.5,285.9z"/>
<path class="st31" d="M960.9,270.1l31.5-6l23.2,132.9c0,0-2.4,6.3-12.2,8.2c-9.9,1.9-15.7-2.9-15.7-2.9L960.9,270.1z"/>
<path class="st32" d="M972.4,255.6c0,0,15.9-2.6,19.6,5.8c3.7,8.3-4.9,13-12.1,14.9c-7.3,1.9-21.1,1.3-18.6-8.8
	c2.2-8.8,16.8-8.9,20.2-6.5c3.3,2.5,3.7,8.3-5.8,9.7c-9.5,1.3-6.1-6.7-1.2-7"/>
<path class="st33" d="M970,269.1c0,0,3.1,4,9.4,1s6.6-14.2-9.3-10c-16,4.2-9.6,18.1,1.6,17.3L970,269.1z"/>
<path class="st34" d="M975.4,271.3l-1.5-7.8c0,0-4.8,1.8-4.4,4.7C969.9,271.7,975.4,271.3,975.4,271.3z"/>
<path class="st35" d="M969.5,268.4l1.7,9c7.6,0.4,14.3-3.1,14.3-3.1l-1.9-10.2c0,0,0.5,5-5.7,6.6
	C971.6,272.2,969.5,268.4,969.5,268.4z"/>
<path class="st25" d="M1000.6,280l23-0.9l2.8,115.5c0,0-2.3,5-9.5,5.3c-7.2,0.3-10.8-4.6-10.8-4.6L1000.6,280z"/>
<path class="st32" d="M1010.2,269.3c0,0,11.5,0,13.3,7.5c1.8,7.5-4.8,10.4-10.1,11s-15.1-1.8-12.3-9.9c2.5-7.2,12.8-5.3,14.9-2.8
	c2.1,2.5,1.8,7.5-5.1,7.4c-6.9-0.1-3.6-6.5-0.1-6.1"/>
<path class="st33" d="M1007.1,280.4c0,0,1.8,3.8,6.6,2.1c4.8-1.7,6.1-11.1-5.6-9.8c-11.8,1.4-8.7,14-0.7,14.8L1007.1,280.4z"/>
<path class="st34" d="M1010.7,283l-0.3-6.8c0,0-3.6,0.9-3.6,3.4C1006.8,282.6,1010.7,283,1010.7,283z"/>
<path class="st35" d="M1006.8,279.8l0.3,7.8c5.4,1.3,10.5-0.7,10.5-0.7l-0.3-8.9c0,0-0.2,4.3-4.7,4.8
	C1007.9,283.3,1006.8,279.8,1006.8,279.8z"/>
<path class="st31" d="M1046.8,281.4l27.7,9l-37.6,109.3c0,0-4.6,3.7-13.2,0.9c-8.7-2.8-11.3-8.9-11.3-8.9L1046.8,281.4z"/>
<path class="st32" d="M1062.1,275.5c0,0,13.8,4.9,13.2,12.7c-0.5,7.8-9.4,7.7-16,6c-6.6-1.7-17.3-8.1-11.1-14.5
	c5.5-5.7,17.2,0.5,18.8,3.8c1.6,3.3-0.5,7.8-8.7,4.8c-8.1-3.1-2-7.6,2-5.8"/>
<path class="st33" d="M1054.4,284.6c0,0,0.8,4.4,7.1,4.8c6.3,0.4,11.2-7.8-3.2-11.5c-14.6-3.7-15.3,9.4-6,13.6L1054.4,284.6z"/>
<path class="st34" d="M1057.8,288.6l2.1-6.5c0,0-4.6-0.7-5.5,1.6C1053.3,286.5,1057.8,288.6,1057.8,288.6z"/>
<path class="st35" d="M1054.3,283.9l-2.4,7.4c5.9,3.5,12.7,3.8,12.7,3.8l2.8-8.5c0,0-1.7,3.9-7.4,2.4
	C1054.4,287.6,1054.3,283.9,1054.3,283.9z"/>
<path class="st30" d="M1021.7,334.1c3-2.4,15.2-11.9,15.8-11.1c0.6,0.8-3.5,5.1-2.9,5.3c0.8,0.3,4.4-2.2,6.3-3.8
	c1.7-1.4,4.7-3.5,5.4-2.8c1.4,1.3-8.1,9.1-8.1,9.1c0.4,0.4,8.7-10.3,9.9-9.4c1.8,1.4-7.8,11.9-7.7,12.6c0,0,5.8-11.4,7.1-10.4
	c1.3,1-3.5,11.4-6,13.7c1.6-2.3,4.4-11.3,5.4-10.6c1,0.7-2.1,8-2.8,8.9c-5.9,7.8-12.6,12.6-12.6,12.6"/>
<path class="st12" d="M968.3,341.4c20.9-0.4,60.6-18.2,60.6-18.2l15.7,22.1c0,0-35.7,31.6-67.1,33L968.3,341.4z"/>
<path class="st29" d="M1024.6,359.8l20-14.5l-15.7-22.1c0,0-29.4,13.7-56.6,17.9"/>
<path class="st30" d="M1013.7,391.9c-3.8-0.4-21.2-1.9-21.2-0.8c0,1,5.6,2.4,5.3,2.9c-0.5,0.7-4.9,0.5-7.4,0.2
	c-2.2-0.3-5.8-0.4-6.1,0.6c-0.5,1.8,11.7,3.2,11.7,3.2c-0.1,0.5-12.8-4-13.4-2.5c-0.8,2.1,12.9,5.8,13.3,6.4c0,0-11-6.5-11.6-5
	c-0.6,1.6,9.1,7.6,12.4,8.3c-2.6-1.1-9.8-7.1-10.3-6c-0.4,1.1,6.1,5.6,7.2,6c9.2,3.4,18.4,3.7,18.4,3.7"/>
<path class="st12" d="M1072.8,412.5c17.9-10.5,35.2-38.6,37.2-67.2c1.3-18.7-11.2-42.6-27.2-53.3"/>
<path class="st12" d="M1054,376.2c0,0-21,9.3-49.1,14.2l-4.2,32.8c13.4,1.1,49.2,1.2,74-11.5"/>
<path class="st29" d="M1031.8,422.7c0,0,31.6-4.4,42.9-11.1c18.8-11.1,26.5-33.3,26.5-33.3"/>
<path class="st29" d="M1004.9,390.3c0,0,34.5-5.9,51.7-15.5c13.6-7.7,16.3-45.6,16.3-45.6"/>
<path class="st12" d="M772.4,570.4c-1.7,0-3.2-1.1-3.6-2.8l-13.7-51.9c-0.3-1.1-0.1-2.3,0.7-3.2c0.7-0.9,1.8-1.4,2.9-1.4h66
	c1.7,0,3.2,1.1,3.6,2.8l13.7,51.9c0.3,1.1,0.1,2.3-0.7,3.2c-0.7,0.9-1.8,1.4-2.9,1.4L772.4,570.4L772.4,570.4z"/>
<path class="st36" d="M838.4,567.7h-66c-0.5,0-0.9-0.3-1-0.8L757.7,515c-0.2-0.7,0.3-1.3,1-1.3h66c0.5,0,0.9,0.3,1,0.8l13.7,52
	C839.6,567,839.1,567.7,838.4,567.7z"/>
<polygon class="st36" points="818.7,550.4 772.7,550.4 764.9,520.7 810.8,520.7 "/>
<polygon class="st37" points="820.4,547.5 774.4,547.5 766.6,517.8 812.6,517.8 "/>
<g>
	<defs>
		<polygon id="SVGID_3_" points="817.3,545.8 776.6,545.8 769.6,519.5 810.4,519.5 		"/>
	</defs>
	<clipPath id="SVGID_4_">
		<use xlink:href="#SVGID_3_"  style="overflow:visible;"/>
	</clipPath>
	<rect x="765.2" y="522.6" class="st38" width="59.6" height="2.1"/>
	<rect x="765.2" y="528.6" class="st38" width="59.6" height="2.1"/>
	<rect x="765.2" y="534.6" class="st38" width="59.6" height="2.1"/>
	<rect x="765.2" y="540.5" class="st38" width="59.6" height="2.1"/>
	<use xlink:href="#SVGID_3_"  style="overflow:visible;fill:none;stroke:#008D45;stroke-miterlimit:10;"/>
</g>
<polygon class="st36" points="830.1,564.5 786.3,564.5 778.8,536.2 822.6,536.2 "/>
<polygon class="st37" points="831.7,561.8 787.9,561.8 780.5,533.5 824.3,533.5 "/>
<g>
	<defs>
		<polygon id="SVGID_5_" points="828.8,560.2 790,560.2 783.4,535.1 822.2,535.1 		"/>
	</defs>
	<clipPath id="SVGID_6_">
		<use xlink:href="#SVGID_5_"  style="overflow:visible;"/>
	</clipPath>
	<rect x="779.1" y="538.1" class="st39" width="56.8" height="2"/>
	<rect x="779.1" y="543.8" class="st39" width="56.8" height="2"/>
	<rect x="779.1" y="549.5" class="st39" width="56.8" height="2"/>
	<rect x="779.1" y="555.2" class="st39" width="56.8" height="2"/>
	<use xlink:href="#SVGID_5_"  style="overflow:visible;fill:none;stroke:#008D45;stroke-miterlimit:10;"/>
</g>
<polygon class="st40" points="587.9,645.1 593.7,700.5 596.2,700.3 590.4,644.8 "/>
<path class="st12" d="M615.9,690.3l-0.6,4.9c0,0-6.1,2.5-10.4,3.6c-4.3,1.2-8.7,1.5-8.7,1.5l-5.8-55.5c0,0,5,0.9,14.1,13.4
	c3.6,4.9,7.4,7.2,7.4,7.2L615.9,690.3z"/>
<path class="st30" d="M655.7,692.3l-40.4,2.8c0,0-3.1-2-4-11.5c-1-9.4,0.7-18.3,0.7-18.3l40.4-2.6"/>
<path class="st15" d="M894.6,701c-27.5,1-71.7,1.2-115.8,1.1c-71.3-0.1-142.5-1.1-142.5-1.1l-5.2-42.7c0,0,67.2-6.9,131.7-15.8
	c63.5-8.8,125.1,4.2,125.1,4.2"/>
<line class="st29" x1="634.4" y1="685.1" x2="852.5" y2="685.3"/>
<rect x="635.5" y="649.3" transform="matrix(0.8092 -0.5875 0.5875 0.8092 -276.3633 503.3041)" class="st40" width="2.5" height="55.8"/>
<path class="st12" d="M666.1,680.6l1.9,4.6c0,0-4,5.2-7.2,8.3c-3.1,3.1-6.8,5.6-6.8,5.6L621.3,654c0,0,4.8-1.7,18.9,4.5
	c5.6,2.4,10,2.5,10,2.5L666.1,680.6z"/>
<path class="st30" d="M693.3,673.8L668,685.1c0,0-3.7-0.2-9.2-7.9c-5.6-7.7-8.6-16.2-8.6-16.2l40.3-18.6"/>
<path class="st12" d="M933.3,617.8c0,0,23.6,83.2-35.6,83.2c-59.2,0-98-40.7-106.4-41.7c-8.3-1-98,33.9-98,33.9L667,652.5
	c0,0,71.7-37,99.7-42.7c28-5.7,103.3,12.7,103.3,12.7"/>
<path class="st15" d="M906.4,701"/>
<path class="st29" d="M906.3,624c0,0,7.4,41.9-7.4,53.6c-21,16.6-95.9-33-108.4-33S685.3,681,685.3,681"/>
<path class="st29" d="M881.8,623c-0.3,19.9,25.4,19.8,25.4,19.8"/>
<line class="st29" x1="676.9" y1="649.2" x2="701.2" y2="689.9"/>
<path class="st30" d="M868.6,460.8c-3.2,10.5-3.1,20.1,5.7,22.8c8.9,2.7,21.8,1.9,26.4-13c3.2-10.4-1.4-21.1-10.3-23.8
	C881.5,444.1,871.8,450.4,868.6,460.8z"/>
<path class="st30" d="M878.6,493.9c0,0,5.9,2.6,12.7,1.7c8.1-1.1,9.7-4.2,9.7-4.2l-6.7-22.4l-17.8,5.3L878.6,493.9z"/>
<path class="st30" d="M870.6,460.8c0,0-5.5,6.1-5.4,7.3c0.1,1.2,3.3,2.2,3.3,2.2"/>
<path class="st41" d="M869.6,454.8L869.6,454.8L869.6,454.8z"/>
<path class="st41" d="M888.7,468.9c-6.2-2.7-10.3-9.5-9.6-16.2c-3.1,2.3-5.7,2.9-9.5,2.1c4.1-8.1,13-13.7,22.2-12
	c5.2,0.9,9.6,3.6,12.6,8c4.6,6.8,4.6,10.5,6.8,18.2c0.8,2.7,2.8,8.9,6,10.9c-4.2,3.3-17.9,9-35.4,5.4c5.2-4.7,7.9-11.9,7.2-18.9"/>
<path class="st30" d="M886.1,466.3c0,0,2.3-2.6,4.8-0.4c3.2,2.9-1.3,8.8-3.9,9.6c-2.7,0.9-3.3-2.1-3.3-2.1"/>
<path class="st30" d="M787.6,560.8c-3.5-1.7-19.3-8.9-19.7-8c-0.4,0.9,4.5,4.2,4,4.5c-0.7,0.5-4.8-1.2-7-2.3c-2-1-5.4-2.3-5.9-1.5
	c-1.1,1.5,9.9,7,9.9,7c-0.3,0.5-10.7-8.1-11.7-6.9c-1.5,1.7,10.2,9.9,10.3,10.6c0,0-8.2-9.9-9.3-8.6c-1.1,1.3,6,10.3,8.9,12.1
	c-2.1-1.9-6.8-10-7.6-9.1c-0.8,0.9,3.8,7.3,4.8,8.1c7.5,6.3,16,9.7,16,9.7"/>
<path class="st40" d="M881.4,555.4c0,0-8.4,46-34.7,50.2c-32.1,5.2-77.7-22.5-77.7-22.5l12.8-25.6c30.1,8.3,48.1,8.6,52.8,4.2
	c4.8-4.3,9.9-32.3,22.9-50.8c13-18.5,21-18,21-18s2.7,2.7,10.6,2.4c7.9-0.2,12-3.9,12-3.9s12.6,2.9,25.6,26.6
	c13,23.6,9.3,105,9.3,105s-46.8,9.5-93.7-7.1c0,0-1.7-76.6,9.6-93.5"/>
<path class="st29" d="M842.3,606.1c34.3-5.6,41.3-64.9,41.3-64.9"/>
<path class="st31" d="M290.9,532.8l30.2,25.5l-94.5,106.4c0,0-7.2,1.8-16.6-6.2c-9.4-8-10.1-16.4-10.1-16.4L290.9,532.8z"/>
<path class="st32" d="M312.2,534.4c0,0,14.8,13.2,10.9,21.8c-4,8.7-14.8,3.7-22.1-1.9c-7.3-5.6-17.9-18.8-7.5-22.8
	c9.1-3.5,20.9,10,21.5,14.6c0.6,4.6-4,8.7-12.6,0.7c-8.7-8,0.8-9.8,4.9-5.5"/>
<path class="st33" d="M299,540.7c0,0-0.8,5.4,6.7,9.4c7.5,3.9,17.1-2.8,0.9-15c-16.3-12.2-22.7,2.4-13.1,12.3L299,540.7z"/>
<path class="st34" d="M301.4,547l5.3-6.3c0,0-5.3-3.3-7.4-1.2C296.8,542.2,301.4,547,301.4,547z"/>
<path class="st42" d="M299.1,539.7l-6.1,7.2c5.8,7.3,14,11.3,14,11.3l6.9-8.2c0,0-3.8,3.5-10-1.2
	C297.7,544.1,299.1,539.7,299.1,539.7z"/>
<path class="st25" d="M68.4,574.9l37.2-27.3l79.2,113c0,0,0.2,8.9-11.4,17.4c-11.6,8.5-21.5,6.7-21.5,6.7L68.4,574.9z"/>
<path class="st32" d="M75.6,550.7c0,0,19-13.2,28-6c9,7.2,0.5,18.2-7.8,25.1c-8.3,6.8-26.3,15-28.2,1.8
	c-1.7-11.6,16.9-21.2,22.4-20.5s9,7.2-2.4,14.9s-11.2-3.9-5.1-7.4"/>
<path class="st33" d="M79.5,568c0,0,6.1,2.6,12.6-4.9c6.5-7.5,1.1-20.7-17.1-5.6c-18.3,15.2-3,27.1,10.9,18.9L79.5,568z"/>
<path class="st34" d="M87.5,567l-5.9-8.1c0,0-5.2,5.2-3.2,8.3C80.7,571,87.5,567,87.5,567z"/>
<path class="st42" d="M78.5,567.5l6.8,9.3c10-4.5,16.7-12.9,16.7-12.9l-7.7-10.5c0,0,3.1,5.4-4,11.3
	C83.1,570.5,78.5,567.5,78.5,567.5z"/>
<path class="st43" d="M139.9,557.6l4.3,18.7l-6.8,7.2l-10.1-3.3l-4.3-18.7c-4.5,4.2-6.8,10.6-5.3,17c2.2,9.5,11.7,15.4,21.2,13.2
	s15.4-11.7,13.2-21.2C150.6,564.1,145.8,559.4,139.9,557.6z"/>
<rect x="137.9" y="587.7" transform="matrix(0.9741 -0.2261 0.2261 0.9741 -137.459 49.3266)" class="st43" width="17.4" height="74.1"/>
<path class="st44" d="M153.7,655.6c-9.5,2.2-15.4,11.7-13.2,21.2c2.2,9.5,11.7,15.4,21.2,13.2c9.5-2.2,15.4-11.7,13.2-21.2
	C172.7,659.3,163.2,653.4,153.7,655.6z M167.5,675.8l-7.5,7l-9.8-3l-2.3-10l7.5-7l9.8,3L167.5,675.8z"/>
<path class="st44" d="M146.9,694.3l5.7-20l10.2-3.2l7.9,8.4l-5.7,20c6.5-1.6,11.9-6.4,13.9-13.3c2.9-10.1-3-20.7-13.1-23.6
	c-10.1-2.9-20.7,3-23.6,13.1C140.2,682.6,142.3,689.6,146.9,694.3z"/>
<rect x="135.8" y="618" transform="matrix(0.2753 -0.9614 0.9614 0.2753 -475.6299 623.767)" class="st21" width="80.2" height="18.8"/>
<path class="st21" d="M185.3,594.5c10.1,2.9,20.7-3,23.6-13.1c2.9-10.1-3-20.7-13.1-23.6c-10.1-2.9-20.7,3-23.6,13.1
	C169.3,581,175.2,591.6,185.3,594.5z M182.9,568.1l10.7-2.7l7.7,8l-3,10.7l-10.7,2.7l-7.7-8L182.9,568.1z"/>
<path class="st25" d="M233.8,519.4l40.9,21.3L199.5,679c0,0-8.3,5-21.1-1.6c-12.8-6.6-15.1-17.2-15.1-17.2L233.8,519.4z"/>
<path class="st32" d="M259.7,513.3c0,0,20.2,11.3,17,24c-3.2,12.7-17.1,10.4-26.9,6c-9.8-4.3-24.9-17.3-13.1-26.4
	c10.4-8,26.9,4.9,28.5,10.6c1.6,5.7-3.2,12.7-15.1,5.8s-0.8-13,5-9"/>
<path class="st33" d="M244.9,526.5c0,0,0,7.3,9.7,9.5c9.8,2.2,20.1-10.2-1.6-19.6c-21.8-9.5-26.9,11.9-13.6,20.9L244.9,526.5z"/>
<path class="st34" d="M249,533.7l5.3-10.2c0,0-7-2.2-9.2,1.4C242.5,529.3,249,533.7,249,533.7z"/>
<path class="st42" d="M245,525.2l-6.1,11.6c8.3,7.2,18.9,9.2,18.9,9.2l6.9-13.2c0,0-3.9,6-12.3,2.3C244,531.3,245,525.2,245,525.2z"
	/>
<rect x="84.7" y="616.4" class="st10" width="143.5" height="85.7"/>
<rect x="226.8" y="616.4" class="st45" width="78.6" height="85.7"/>
<polygon class="st46" points="196.1,657.8 53.2,657.8 83.9,616.4 226.8,616.4 "/>
<polygon class="st47" points="244.3,657.8 323.3,657.8 305.3,616.4 226.4,616.4 "/>
<line class="st9" x1="362.5" y1="702.1" x2="397.1" y2="398.8"/>
<line class="st9" x1="265.3" y1="702.1" x2="299.9" y2="398.8"/>
<line class="st9" x1="270.7" y1="659.2" x2="367.4" y2="659.2"/>
<line class="st9" x1="275.1" y1="622" x2="371.7" y2="622"/>
<line class="st9" x1="278.8" y1="583.8" x2="375.2" y2="583.8"/>
<line class="st9" x1="283" y1="547.5" x2="379.1" y2="547.5"/>
<line class="st9" x1="287.3" y1="509.5" x2="384.1" y2="509.5"/>
<line class="st9" x1="291.6" y1="471.8" x2="387.8" y2="471.8"/>
<line class="st9" x1="296.4" y1="436.2" x2="392.9" y2="436.2"/>
<line class="st9" x1="334.6" y1="702.1" x2="299.9" y2="398.8"/>
<line class="st9" x1="431.7" y1="702.1" x2="397.1" y2="398.8"/>
<line class="st9" x1="426.4" y1="659.2" x2="329.7" y2="659.2"/>
<line class="st9" x1="422" y1="622" x2="325.4" y2="622"/>
<line class="st9" x1="418.2" y1="583.8" x2="321.9" y2="583.8"/>
<line class="st9" x1="414.1" y1="547.5" x2="317.9" y2="547.5"/>
<line class="st9" x1="409.8" y1="509.5" x2="313" y2="509.5"/>
<line class="st9" x1="405.5" y1="471.8" x2="309.3" y2="471.8"/>
<line class="st9" x1="400.7" y1="438.4" x2="304.2" y2="438.4"/>
<rect x="285.3" y="391.8" class="st12" width="125.3" height="8.8"/>
<polygon class="st15" points="481.9,239.5 447.4,304.8 356.5,304.8 356.5,296.7 445.4,296.7 477.2,236.5 "/>
<path class="st30" d="M363.3,170.5c0.5,11-2,20.4-11.3,20.8c-9.3,0.4-21.7-3.7-22.4-19.3c-0.5-11,6.7-20.2,16-20.6
	C354.9,151,362.9,159.6,363.3,170.5z"/>
<path class="st30" d="M345.3,200.2c0,0-6.2,0.4-12.6-2.2c-7.6-3.1-8.6-5.8-8.6-5.8l12.1-20.2l16,9.6L345.3,200.2z"/>
<path class="st30" d="M361.5,170c0,0,3.8,7.3,3.4,8.5c-0.4,1.2-3.7,1.3-3.7,1.3"/>
<path class="st27" d="M339.5,171.5c1.4,2.8,5.5,4.7,7.1-0.3c1.6-5,1-6.4,3.5-6.9c3.2-0.7,2.3,1.7,13.2,2.4c6.5,0.4,9.5-4.5,8.8-8
	c-0.4-2.2-1.7-5.2-5.7-6c-5.8-1-3.9,0.2-7.7-1c-3.7-1.2-5.2-4.4-11.1-4.6c-5.9-0.3-9.2,4.4-9.2,4.4s-4.8-2.2-8.6,3.1
	c-3.6,5-1.4,7-3.6,12.1c-1.9,4.4-0.6,11.9,1.7,14.1c5.8,5.8,11.7,0.2,11.7,0.2s-6-10-1.6-9.7"/>
<path class="st30" d="M341.8,171.9c0,0-1.6-3.1-4.6-1.6c-3.9,2-1,8.9,1.4,10.4c2.4,1.5,3.8-1.2,3.8-1.2"/>
<rect x="439.6" y="500.3" transform="matrix(0.119 -0.9929 0.9929 0.119 -136.0551 903.0036)" class="st15" width="2.5" height="55.8"/>
<path class="st41" d="M423.6,504.1l-4.9,0.6c0,0-2.6,6-3.8,10.3c-1.2,4.3-1.6,8.6-1.6,8.6l55.4,6.6c0,0-0.9-5-13.2-14.3
	c-4.8-3.7-7.1-7.5-7.1-7.5L423.6,504.1z"/>
<path class="st30" d="M411.6,466.5l7.1,38.2c0,0,2,3.1,11.4,4.2c9.4,1.1,18.3-0.4,18.3-0.4l-4.5-48.7"/>
<polyline class="st48" points="451.6,368.1 460.3,496.6 409.7,503.2 399.7,389.6 "/>
<line class="st29" x1="409.3" y1="493.7" x2="457.8" y2="487.3"/>
<rect x="382.5" y="477.6" transform="matrix(0.4195 -0.9078 0.9078 0.4195 -236.1026 641.8135)" class="st15" width="2.5" height="55.8"/>
<path class="st41" d="M374.8,477.3l-4.9-1c0,0-4.3,5-6.8,8.6s-4.2,7.7-4.2,7.7l50.6,23.4c0,0,0.7-5-8.1-17.6c-3.5-5-4.4-9.3-4.4-9.3
	L374.8,477.3z"/>
<path class="st30" d="M377.4,462.6l-7.4,13.7c0,0,0.9,3.6,9.5,7.5c8.6,4,17.6,5.3,17.6,5.3l15.2-23.4"/>
<path class="st15" d="M284.3,308.4c0,0-15.6,83.4,25.1,83.4c31.8,0,68.7,0.5,83.3,0.7c3.2,0,5.4,3.2,4.4,6.2l-23.1,68.2l49.3,21.6
	c0,0,40.2-90.5,35.8-124.5c-4.5-33.9-117.4-38.4-117.4-38.4l-11.7-22.2"/>
<path class="st29" d="M304.8,318.7c0,0-8.4,45.8,12.9,52.5c21.3,6.8,71.7,7.6,86.8,11c5.8,1.3,9.4,7.1,8,12.9l-27.4,76.7"/>
<path class="st29" d="M336.1,324.6c-2,15.1-32.6,20.8-32.6,20.8"/>
<line class="st29" x1="376.7" y1="458.7" x2="426.6" y2="480.7"/>
<path class="st30" d="M424.7,302.4c3.8-0.3,21.2-1.1,21.2-0.1c0,1-5.7,2.2-5.4,2.7c0.4,0.7,4.9,0.7,7.4,0.5c2.2-0.2,5.8-0.2,6.1,0.8
	c0.4,1.8-11.8,2.8-11.8,2.8c0.1,0.5,13-3.5,13.5-2c0.7,2.1-13.1,5.4-13.5,6c0,0,11.3-6.1,11.8-4.5c0.5,1.6-9.4,7.3-12.7,7.9
	c2.7-1,10.1-6.8,10.5-5.6c0.4,1.2-6.3,5.4-7.4,5.7c-9.3,3-18.5,3.1-18.5,3.1"/>
<path class="st12" d="M348.7,229.7c0,36.9,5.3,49.9,18.2,57.8c13.2,8.1,42.8,10.6,60.8,12.2l-2.1,28.2c0,0-68.8-1.4-86.4-11
	c-17.6-9.6-20.3-62.5-20.3-62.5"/>
<path class="st12" d="M345.7,199.5c17.7,17.3,25,128.5,25,128.5c-42.5,2.3-102.2,2.8-102.2,2.8s5.2-81.5,20.9-106.7
	c14-22.6,34.9-32.5,34.9-32.5s4,5.2,10.5,6.7C341.4,199.8,345.7,199.5,345.7,199.5"/>
<path class="st29" d="M369.9,288.9c-20.2-7.8-19.6-50.9-19.6-50.9"/>
<path class="st29" d="M370.4,324c0,0-29.9-0.1-43.8-25.7c-13.9-25.6-16-54.4-16-54.4"/>
</svg>
