<?xml version="1.0" encoding="utf-8"?>
<!-- Generator: Adobe Illustrator 22.0.0, SVG Export Plug-In . SVG Version: 6.00 Build 0)  -->
<svg version="1.1" id="Layer_1" xmlns="http://www.w3.org/2000/svg" xmlns:xlink="http://www.w3.org/1999/xlink" x="0px" y="0px"
	 viewBox="0 0 737.6 540.7" style="enable-background:new 0 0 737.6 540.7;" xml:space="preserve">
<style type="text/css">
	.st0{opacity:0.38;fill:#DEE2E7;enable-background:new    ;}
	
		.st1{fill:none;stroke:#008D45;stroke-width:1.0183;stroke-linecap:round;stroke-linejoin:round;stroke-miterlimit:10;stroke-dasharray:2.0366,7.128;}
	.st2{fill:#008D45;}
	.st3{fill:#045E2D;}
	.st4{fill:#00AC54;}
	.st5{fill:#06D2FF;}
	.st6{fill:#FFFFFF;}
	.st7{fill:#FFD943;}
	.st8{fill:none;stroke:#FFFFFF;stroke-width:1.4507;stroke-linecap:round;stroke-linejoin:round;stroke-miterlimit:10;}
	.st9{opacity:0.38;fill:none;stroke:#CED3D8;stroke-width:2.0366;stroke-miterlimit:10;enable-background:new    ;}
	.st10{opacity:0.16;fill:#D3D4DD;enable-background:new    ;}
	.st11{fill:none;stroke:#243853;stroke-width:0.8763;stroke-miterlimit:10;}
	.st12{opacity:0.63;clip-path:url(#SVGID_2_);fill:#E2E2E2;enable-background:new    ;}
	.st13{opacity:0.63;clip-path:url(#SVGID_4_);fill:#E2E2E2;enable-background:new    ;}
	.st14{clip-path:url(#SVGID_6_);fill:#00BDE6;}
	.st15{clip-path:url(#SVGID_8_);fill:#008D45;}
	.st16{clip-path:url(#SVGID_8_);}
	.st17{clip-path:url(#SVGID_10_);fill:#00AC54;}
	.st18{clip-path:url(#SVGID_8_);fill:#FFFFFF;}
	.st19{opacity:0.46;clip-path:url(#SVGID_8_);fill:url(#SVGID_11_);enable-background:new    ;}
	.st20{clip-path:url(#SVGID_13_);fill:#00378C;}
	.st21{fill:#FFE083;}
	.st22{fill:#FF9600;}
</style>
<path class="st0" d="M142.8,539.2c0,0-126-87.4-60.6-170.2c65.4-82.8,195.1-53.4,323.6-103.7C534.2,215,584,196,630.9,240.4
	c45.8,43.4-39.7,127.2,19.7,199.9c64.2,78.7-17.5,93-33,98.9L142.8,539.2L142.8,539.2z"/>
<path class="st1" d="M273.9,280.8c-30.4,21-46.1,34-48.9,2.1c-6.9-78.9-74.7-120.3-124.2-120.3"/>
<path class="st2" d="M75.5,148.7c-0.2-0.1,12.6,0.2,12.6,0.2l6.8,17.2L83.3,157l-13.4,4.8l-26.7-6.1L75.5,148.7z"/>
<polygon class="st3" points="43.2,155.7 94.8,166 83.3,157 "/>
<polygon class="st4" points="43.2,155.7 93.6,138.9 88,148.9 43.2,155.7 83.3,157 74.1,174.4 "/>
<path class="st5" d="M527.6,71.9h-41.2c-5.5,0-10-4.5-10-10l0,0c0-5.5,4.5-10,10-10h41.2c5.5,0,10,4.5,10,10l0,0
	C537.6,67.5,533.1,71.9,527.6,71.9z"/>
<circle class="st6" cx="496.1" cy="62" r="2.5"/>
<circle class="st6" cx="507" cy="62" r="2.5"/>
<circle class="st6" cx="517.9" cy="61.9" r="2.5"/>
<ellipse transform="matrix(5.530037e-02 -0.9985 0.9985 5.530037e-02 -166.985 341.9026)" class="st5" cx="97.2" cy="259.2" rx="46.8" ry="46.8"/>
<polygon class="st6" points="78.1,270.5 88.7,259.8 78.1,251.9 "/>
<polygon class="st6" points="102.9,261.8 97.1,266 91.3,261.7 81.2,272 113,272 "/>
<polygon class="st6" points="105.5,259.8 116.2,270.5 116.2,251.9 "/>
<polygon class="st6" points="97.2,262.4 116.2,248.2 116.2,243.6 78.1,243.6 78.1,248.2 "/>
<path class="st7" d="M625.1,192.6h-74.7c-7.3,0-13.1-5.9-13.1-13.1V110c0-5.5,4.5-10,10-10h77.9c5.5,0,10,4.5,10,10v72.6
	C635.1,188.1,630.6,192.6,625.1,192.6z"/>
<polyline class="st8" points="600.6,118.7 609.3,120 584.6,136 580,129.8 561.5,140.5 "/>
<line class="st8" x1="606.2" y1="128.4" x2="609.3" y2="120"/>
<rect x="563.5" y="152.9" class="st6" width="8.7" height="17.2"/>
<rect x="575.6" y="147.8" class="st6" width="8.7" height="22.3"/>
<rect x="588.1" y="142.4" class="st6" width="8.7" height="27.7"/>
<rect x="600.6" y="137.9" class="st6" width="8.7" height="32.2"/>
<circle class="st4" cx="666.1" cy="287.6" r="42.9"/>
<path class="st6" d="M682.8,284.3l-2.8-0.5c-0.3-1.2-0.8-2.4-1.4-3.5l1.6-2.3c0.6-0.8,0.5-2-0.2-2.7l-1.7-1.7
	c-0.7-0.7-1.9-0.8-2.7-0.2l-2.3,1.6c-1.1-0.6-2.2-1.1-3.5-1.4l-0.5-2.8c-0.2-1-1-1.8-2.1-1.8h-2.4c-1,0-1.9,0.7-2.1,1.8l-0.5,2.8
	c-1.2,0.3-2.4,0.8-3.5,1.4l-2.3-1.5c-0.8-0.6-2-0.5-2.7,0.2l-1.7,1.7c-0.7,0.7-0.8,1.9-0.2,2.7l1.6,2.3c-0.6,1.1-1.1,2.2-1.4,3.5
	l-2.8,0.5c-1,0.2-1.8,1.1-1.8,2.1v2.4c0,1,0.7,1.9,1.8,2.1l2.8,0.5c0.3,1.2,0.8,2.4,1.4,3.5l-1.6,2.3c-0.6,0.8-0.5,2,0.2,2.7
	l1.7,1.7c0.7,0.7,1.9,0.8,2.7,0.2l2.3-1.6c1.1,0.6,2.3,1.1,3.5,1.4l0.5,2.8c0.2,1,1.1,1.8,2.1,1.8h2.4c1,0,1.9-0.7,2.1-1.8l0.5-2.8
	c1.2-0.3,2.4-0.8,3.5-1.4l2.3,1.6c0.8,0.6,2,0.5,2.7-0.2l1.7-1.7c0.7-0.7,0.8-1.9,0.2-2.7l-1.6-2.3c0.6-1.1,1.1-2.2,1.4-3.5l2.8-0.5
	c1-0.2,1.8-1.1,1.8-2.1v-2.4C684.6,285.3,683.9,284.4,682.8,284.3z M666.1,293.9c-3.5,0-6.4-2.8-6.4-6.4c0-3.5,2.8-6.4,6.4-6.4
	s6.4,2.8,6.4,6.4c0,0,0,0,0,0C672.4,291.1,669.6,293.9,666.1,293.9z"/>
<path class="st4" d="M256.7,133.5h-92.5c-7.2,0-13.1-5.9-13.1-13.1V53.2c0-5.5,4.4-9.9,9.9-9.9h95.7c5.5,0,9.9,4.4,9.9,9.9v70.4
	C266.6,129,262.1,133.5,256.7,133.5z"/>
<path class="st6" d="M237.6,66.3l-5.1-1c-0.2,0-0.3-0.2-0.3-0.3l-1-5.1c-0.1-0.6-0.6-0.7-1-0.3l-7.4,7.4c-0.2,0.2-0.3,0.6-0.3,0.9
	l0.7,3.7l-17.6,17.3c-0.8,0.8-0.8,2,0,2.7c0.8,0.8,2,0.8,2.7,0l17.6-17.3l3.7,0.7c0.3,0.1,0.7-0.1,0.9-0.3l7.4-7.4
	C238.3,66.9,238.2,66.4,237.6,66.3z"/>
<path class="st6" d="M212.9,78.9l3.2-3.2c0.1-0.1,0.1-0.3,0-0.4c-2.7-1.6-5.8-2.4-8.9-2.4c-4.5,0-9,1.7-12.4,5.2
	c-6.9,6.9-6.9,18,0,24.9c3.4,3.4,7.9,5.2,12.4,5.2c4.5,0,9-1.7,12.4-5.2c5.8-5.8,6.7-14.6,2.7-21.3c-0.1-0.1-0.3-0.2-0.4,0l-3.2,3.2
	c-0.1,0.1-0.2,0.3-0.1,0.5c0.7,1.6,1.1,3.4,1.1,5.2c0,3.4-1.3,6.5-3.7,8.9c-2.4,2.4-5.6,3.7-8.9,3.7c-3.4,0-6.5-1.3-8.9-3.7
	c-4.9-4.9-4.9-12.9,0-17.8c2.4-2.4,5.6-3.7,8.9-3.7c1.8,0,3.6,0.4,5.2,1.1C212.6,79.1,212.8,79,212.9,78.9z"/>
<path class="st6" d="M231.3,77.8l-3.3,3.3c-0.1,0.1-0.2,0.3-0.1,0.5c1.2,2.8,1.8,5.8,1.8,8.9c0,6-2.3,11.7-6.6,16s-9.9,6.6-16,6.6
	c-6,0-11.7-2.3-16-6.6c-8.8-8.8-8.8-23.1,0-31.9c4.3-4.3,9.9-6.6,16-6.6c3.1,0,6.1,0.6,8.9,1.8c0.2,0.1,0.4,0,0.5-0.1l3.3-3.3
	c0.1-0.1,0.1-0.3-0.1-0.4c-3.9-2-8.3-3-12.6-3.1c-7,0-14.1,2.7-19.5,8.1c-10.8,10.8-10.8,28.2,0,38.9c5.4,5.4,12.4,8.1,19.5,8.1
	c7,0,14.1-2.7,19.5-8.1c8.7-8.7,10.4-21.7,5-32.1C231.6,77.7,231.4,77.7,231.3,77.8z"/>
<path class="st4" d="M120.3,432.5h-7.8c-2.1,0-3.7-1.7-3.7-3.7v-7.3c0-2.1,1.7-3.7,3.7-3.7h7.8c2.1,0,3.7,1.7,3.7,3.7v7.3
	C124.1,430.8,122.4,432.5,120.3,432.5z"/>
<path class="st7" d="M689.1,420h-85.5c-2.1,0-3.7-1.7-3.7-3.7l0,0c0-2.1,1.7-3.7,3.7-3.7h85.5c2.1,0,3.7,1.7,3.7,3.7l0,0
	C692.9,418.3,691.2,420,689.1,420z"/>
<path class="st0" d="M493.6,138.9h-36.9c-3.2,0-5.8-2.6-5.8-5.8l0,0c0-3.2,2.6-5.8,5.8-5.8h36.9c3.2,0,5.8,2.6,5.8,5.8l0,0
	C499.4,136.3,496.8,138.9,493.6,138.9z"/>
<path class="st0" d="M279.5,194.9h-53.5c-3.2,0-5.8-2.6-5.8-5.8l0,0c0-3.2,2.6-5.8,5.8-5.8h53.5c3.2,0,5.8,2.6,5.8,5.8l0,0
	C285.3,192.3,282.7,194.9,279.5,194.9z"/>
<path class="st7" d="M103.7,372.8H43c-1.9,0-3.5,1.6-3.5,3.5v0.4c0,1.9,1.6,3.5,3.5,3.5h60.7c1.9,0,3.5-1.6,3.5-3.5v-0.4
	C107.2,374.4,105.6,372.8,103.7,372.8z"/>
<path class="st4" d="M648.5,379.2h-31c-1.9,0-3.5,1.6-3.5,3.5v0.4c0,1.9,1.6,3.5,3.5,3.5h31c1.9,0,3.5-1.6,3.5-3.5v-0.4
	C652.1,380.8,650.5,379.2,648.5,379.2z"/>
<circle class="st7" cx="692.8" cy="188.4" r="6.1"/>
<circle class="st4" cx="425.6" cy="10.8" r="6.1"/>
<circle class="st9" cx="668.9" cy="60.4" r="8.5"/>
<circle class="st9" cx="13.9" cy="437.5" r="8.5"/>
<circle class="st0" cx="85.2" cy="82.7" r="7"/>
<circle class="st0" cx="723.1" cy="364.4" r="7"/>
<path class="st2" d="M576.4,538.8l-393,0.3c-14.9,0-27-12-27-26.9l0,0l446.9-0.4l0,0C603.4,526.7,591.3,538.8,576.4,538.8z"/>
<path class="st4" d="M576.4,529.5l-393,0.3c-11.6,0-21.5-7.4-25.3-17.7h-1.7c0,14.9,12.1,26.9,27,26.9l393-0.3
	c14.9,0,26.9-12.1,26.9-27l-1.7,0C597.9,522.1,588.1,529.5,576.4,529.5z"/>
<path class="st3" d="M405.3,521l-50.8,0c-5,0-9-4-9-9l0,0l68.8-0.1l0,0C414.3,516.9,410.3,521,405.3,521z"/>
<path class="st4" d="M580.4,511.8l-400.9,0.3l-0.2-242c0-13.9,11.2-25.1,25.1-25.2l350.6-0.3c13.9,0,25.1,11.2,25.2,25.1
	L580.4,511.8z"/>
<rect x="200.2" y="265.7" class="st6" width="359.2" height="225.3"/>
<rect x="200.3" y="469.5" class="st10" width="359.2" height="21.5"/>
<rect x="200.1" y="265.7" class="st10" width="359.2" height="10.7"/>
<polygon class="st0" points="319.9,265.8 200.2,385.7 200.3,491.2 200.6,491.2 425.7,265.7 "/>
<polygon class="st0" points="233.8,491.2 299.5,491.1 524.6,265.6 458.9,265.7 "/>
<polygon class="st0" points="517.2,490.9 559.5,448.7 559.4,383 451.5,491 "/>
<line class="st11" x1="25.8" y1="539.1" x2="737.6" y2="539.1"/>
<polygon class="st5" points="351.9,321.2 353.1,337.4 398.5,337.4 400.9,321.8 "/>
<path id="XMLID_11_" class="st2" d="M329.4,179.9l-21.6,31.8c-7.8,11.5-12,25-12,38.8l-0.2,52.5l45.8-48.5L329.4,179.9z"/>
<g>
	<defs>
		<path id="SVGID_1_" d="M329.4,179.9l-21.6,31.8c-7.8,11.5-12,25-12,38.8l-0.2,52.5l45.8-48.5L329.4,179.9z"/>
	</defs>
	<clipPath id="SVGID_2_">
		<use xlink:href="#SVGID_1_"  style="overflow:visible;"/>
	</clipPath>
	<path class="st12" d="M329.1,169.1c0,0-22.3,70.8-10.7,122.2l23.8-28.5l-6.9-87.8L329.1,169.1z"/>
</g>
<path id="XMLID_10_" class="st2" d="M423,180.2l21.4,32c7.7,11.5,11.8,25,11.7,38.9l-0.2,52.5l-45.5-48.8L423,180.2z"/>
<g>
	<defs>
		<path id="SVGID_3_" d="M423,180.2l21.4,32c7.7,11.5,11.8,25,11.7,38.9l-0.2,52.5l-45.5-48.8L423,180.2z"/>
	</defs>
	<clipPath id="SVGID_4_">
		<use xlink:href="#SVGID_3_"  style="overflow:visible;"/>
	</clipPath>
	<path class="st13" d="M418.2,156c0,0,25.1,78.6,16.6,135.8L404,251.3l13.1-75.6L418.2,156z"/>
</g>
<path id="XMLID_8_" class="st5" d="M374,23.6c0,0-27,48.4-41.5,135.8c-14.6,87.4-1.8,138.3-1.8,138.3h92
	C422.7,297.7,445.3,141.1,374,23.6z"/>
<g>
	<defs>
		<path id="SVGID_5_" d="M374,23.6c0,0-27,48.4-41.5,135.8c-14.6,87.4-1.8,138.3-1.8,138.3h92C422.7,297.7,445.3,141.1,374,23.6z"/>
	</defs>
	<clipPath id="SVGID_6_">
		<use xlink:href="#SVGID_5_"  style="overflow:visible;"/>
	</clipPath>
	<polygon class="st14" points="373.5,14.9 372.7,309.7 465.7,312.2 431.8,25.3 	"/>
</g>
<g>
	<defs>
		<path id="SVGID_7_" d="M374,23.6c0,0-27,48.4-41.5,135.8c-14.6,87.4-1.8,138.3-1.8,138.3h92C422.7,297.7,445.3,141.1,374,23.6z"/>
	</defs>
	<clipPath id="SVGID_8_">
		<use xlink:href="#SVGID_7_"  style="overflow:visible;"/>
	</clipPath>
	<polygon id="XMLID_12_" class="st15" points="412.5,60 342.8,58.5 372.6,15.9 	"/>
	<g class="st16">
		<defs>
			<polygon id="SVGID_9_" points="412.5,60 342.8,58.5 372.6,15.9 			"/>
		</defs>
		<clipPath id="SVGID_10_">
			<use xlink:href="#SVGID_9_"  style="overflow:visible;"/>
		</clipPath>
		<polygon class="st17" points="374.5,5.2 373.4,69.6 404.6,63.3 		"/>
	</g>
	<circle class="st18" cx="375.5" cy="161.6" r="29.4"/>
	<circle class="st15" cx="375" cy="161.6" r="19.2"/>
	
		<linearGradient id="SVGID_11_" gradientUnits="userSpaceOnUse" x1="41.4357" y1="706.0836" x2="79.7623" y2="706.0836" gradientTransform="matrix(-0.6123 -0.7906 -0.7906 0.6123 970.3355 -222.8705)">
		<stop  offset="0.142" style="stop-color:#001274"/>
		<stop  offset="0.3221" style="stop-color:#001777;stop-opacity:0.6855"/>
		<stop  offset="0.5457" style="stop-color:#002781;stop-opacity:0.295"/>
		<stop  offset="0.7146" style="stop-color:#00378C;stop-opacity:0"/>
	</linearGradient>
	<circle class="st19" cx="375" cy="161.6" r="19.2"/>
	<polygon id="XMLID_9_" class="st15" points="349.1,297.6 404,297.6 408.2,325.5 344.9,325.3 	"/>
	<g class="st16">
		<defs>
			<polygon id="SVGID_12_" points="349.1,297.6 404,297.6 408.2,325.5 344.9,325.3 			"/>
		</defs>
		<clipPath id="SVGID_13_">
			<use xlink:href="#SVGID_12_"  style="overflow:visible;"/>
		</clipPath>
		<polygon class="st20" points="372.7,294.9 373.8,333.1 420.9,329.9 413.7,297.9 		"/>
	</g>
</g>
<polygon class="st7" points="353,337.4 315.5,491.1 436,491 398.4,337.4 "/>
<polygon class="st21" points="362.9,337.4 344.8,491.2 406.9,491 388.1,337.4 "/>
<path class="st22" d="M363.5,337.4c0,0-22,41.7,12.5,76.9c0,0,32.4-25.2,12.4-76.9H363.5z"/>
<path class="st7" d="M367.1,337.4c0,0-14.1,30.4,9.4,51.4c0,0,20.4-16.3,8.5-51.4H367.1z"/>
<path class="st22" d="M370.1,337.4c0,0-8.6,18.6,5.8,31.4c0,0,12.5-10,5.2-31.4H370.1z"/>
<circle class="st7" cx="289.4" cy="454.5" r="10.1"/>
<circle class="st7" cx="450.8" cy="442.4" r="7.3"/>
<circle class="st7" cx="303.2" cy="470.9" r="4"/>
<circle class="st7" cx="446.9" cy="468.8" r="4"/>
<circle class="st7" cx="477.2" cy="467.1" r="3.9"/>
<circle class="st7" cx="271.8" cy="478.2" r="4"/>
</svg>
